<svg xmlns="http://www.w3.org/2000/svg" xmlns:xlink="http://www.w3.org/1999/xlink" width="16" height="16" viewBox="0 0 16 16"><defs><clipPath id="a"><rect width="16" height="16" fill="none"/></clipPath></defs><g clip-path="url(#a)"><path d="M15.437,9.834H5.674a.523.523,0,1,1,0-1.046h9.763a.523.523,0,1,1,0,1.046" transform="translate(-2.824 -4.307)" fill="#646871"/><path d="M10.555,14.682H5.675a.523.523,0,1,1,0-1.046h4.881a.523.523,0,1,1,0,1.046" transform="translate(-2.824 -6.366)" fill="#646871"/><path d="M10.555,19.531H5.675a.523.523,0,1,1,0-1.046h4.881a.523.523,0,1,1,0,1.046" transform="translate(-2.824 -8.426)" fill="#646871"/><path d="M21.8,19.9a.523.523,0,0,1-.37-.153l-2.789-2.79a.523.523,0,0,1,.739-.739L22.167,19a.523.523,0,0,1-.37.893" transform="translate(-8.487 -7.396)" fill="#646871"/><path d="M19.008,19.9a.523.523,0,0,1-.37-.893l2.79-2.789a.523.523,0,0,1,.739.739l-2.789,2.79a.523.523,0,0,1-.37.153" transform="translate(-8.487 -7.396)" fill="#646871"/></g></svg>