<svg xmlns="http://www.w3.org/2000/svg" width="11" height="11" viewBox="0 0 11 11"><path d="M1-.5H9A1.5,1.5,0,0,1,10.5,1V9A1.5,1.5,0,0,1,9,10.5H1A1.5,1.5,0,0,1-.5,9V1A1.5,1.5,0,0,1,1-.5Zm8,10A.5.5,0,0,0,9.5,9V1A.5.5,0,0,0,9,.5H1A.5.5,0,0,0,.5,1V9a.5.5,0,0,0,.5.5Z" transform="translate(0.5 0.5)" fill="#646871"/><g transform="translate(2 2)"><g transform="translate(0 0)"><path d="M.334,4.555H6.667A.333.333,0,0,1,7,4.889v.584a.333.333,0,0,1-.333.333H.334A.334.334,0,0,1,0,5.472V4.889a.334.334,0,0,1,.334-.334" transform="translate(0 -1.68)" fill="#646871"/></g></g></svg>