<svg xmlns="http://www.w3.org/2000/svg" xmlns:xlink="http://www.w3.org/1999/xlink" width="16" height="16" viewBox="0 0 16 16"><defs><clipPath id="a"><rect width="16" height="16" transform="translate(1129 175)" fill="#fff" stroke="#707070" stroke-width="1"/></clipPath></defs><g transform="translate(-1129 -175)" clip-path="url(#a)"><g transform="translate(-1.438 -1)"><g transform="translate(1132.438 178)"><g transform="translate(-507.377 -676.938)"><path d="M2.178,3H.822A.823.823,0,0,1,0,2.178V.823A.823.823,0,0,1,.822,0H2.178A.822.822,0,0,1,3,.823V2.178A.822.822,0,0,1,2.178,3" transform="translate(507.377 676.938)" fill="#646871"/><line x2="6" transform="translate(512.5 678.673)" fill="none" stroke="#646871" stroke-linecap="round" stroke-miterlimit="10" stroke-width="1"/></g><g transform="translate(-507.377 -672.938)"><path d="M2.178,3H.822A.823.823,0,0,1,0,2.178V.823A.823.823,0,0,1,.822,0H2.178A.822.822,0,0,1,3,.823V2.178A.822.822,0,0,1,2.178,3" transform="translate(507.377 676.938)" fill="#646871"/><line x2="6" transform="translate(512.5 678.673)" fill="none" stroke="#646871" stroke-linecap="round" stroke-miterlimit="10" stroke-width="1"/></g><g transform="translate(-507.377 -668.938)"><path d="M2.178,3H.822A.823.823,0,0,1,0,2.178V.823A.823.823,0,0,1,.822,0H2.178A.822.822,0,0,1,3,.823V2.178A.822.822,0,0,1,2.178,3" transform="translate(507.377 676.938)" fill="#646871"/><line x2="6" transform="translate(512.5 678.673)" fill="none" stroke="#646871" stroke-linecap="round" stroke-miterlimit="10" stroke-width="1"/></g></g></g></g></svg>