<svg xmlns="http://www.w3.org/2000/svg" xmlns:xlink="http://www.w3.org/1999/xlink" width="16" height="16" viewBox="0 0 16 16"><defs><clipPath id="a"><rect width="16" height="16" transform="translate(1129 180)" fill="#fff" stroke="#707070" stroke-width="1"/></clipPath><clipPath id="b"><rect width="14.037" height="9.737" transform="translate(0 0)" fill="none"/></clipPath></defs><g transform="translate(-1129 -180)" clip-path="url(#a)"><g transform="translate(-2 3.868)"><g transform="translate(1132 179.131)"><g clip-path="url(#b)"><path d="M.389,0h5.62" transform="translate(7.529 0.959)" fill="none" stroke="#646871" stroke-linecap="round" stroke-width="1"/><line x2="3.037" transform="translate(10.5 4.959)" fill="none" stroke="#646871" stroke-linecap="round" stroke-miterlimit="10" stroke-width="1"/><line x2="1.038" transform="translate(12.5 8.959)" fill="none" stroke="#646871" stroke-linecap="round" stroke-miterlimit="10" stroke-width="1"/><path d="M5.371,7.373.453,9.706a.316.316,0,0,1-.411-.44L5.094.163a.317.317,0,0,1,.554,0l5.052,9.1a.317.317,0,0,1-.413.44ZM9.363,8.418,5.693,1.846V6.608Z" fill="#646871"/></g></g></g></g></svg>