<svg xmlns="http://www.w3.org/2000/svg" xmlns:xlink="http://www.w3.org/1999/xlink" width="16" height="16" viewBox="0 0 16 16"><defs><clipPath id="a"><rect width="16" height="16" transform="translate(1131 203)" fill="#fff" stroke="#707070" stroke-width="1"/></clipPath></defs><g transform="translate(-1131 -203)" clip-path="url(#a)"><g transform="translate(625.858 -445.938)"><g transform="translate(507.142 650.938)"><path d="M2.178,3H.822A.823.823,0,0,1,0,2.178V.823A.823.823,0,0,1,.822,0H2.178A.822.822,0,0,1,3,.823V2.178A.822.822,0,0,1,2.178,3" transform="translate(0)" fill="#646871"/><path d="M14.362,3H13.006a.822.822,0,0,1-.822-.822V.823A.822.822,0,0,1,13.006,0h1.355a.822.822,0,0,1,.822.823V2.178A.822.822,0,0,1,14.362,3" transform="translate(-3.652 0)" fill="#646871"/><path d="M14.362,9.074H13.006a.822.822,0,0,1-.822-.822V6.9a.822.822,0,0,1,.822-.823h1.355a.822.822,0,0,1,.822.823V8.251a.822.822,0,0,1-.822.822" transform="translate(-3.652 -1.747)" fill="#646871"/><path d="M14.362,15.148H13.006a.822.822,0,0,1-.822-.822V12.97a.822.822,0,0,1,.822-.823h1.355a.822.822,0,0,1,.822.823v1.355a.822.822,0,0,1-.822.822" transform="translate(-3.652 -3.547)" fill="#646871"/><line x2="7.507" transform="translate(2.735 1.5)" fill="none" stroke="#646871" stroke-miterlimit="10" stroke-width="1"/><path d="M8.241.742V8.724a.986.986,0,0,0,1.052.9h4.575" transform="translate(-3.518 0.708)" fill="none" stroke="#646871" stroke-miterlimit="10" stroke-width="1"/><line x2="5.252" transform="translate(5.094 6.063)" fill="none" stroke="#646871" stroke-miterlimit="10" stroke-width="1"/></g></g></g></svg>