<svg xmlns="http://www.w3.org/2000/svg" xmlns:xlink="http://www.w3.org/1999/xlink" width="16" height="16" viewBox="0 0 16 16"><defs><clipPath id="a"><rect width="16" height="16" fill="none"/></clipPath></defs><g clip-path="url(#a)"><path d="M13.772,23.363h-8A1.835,1.835,0,0,1,3.939,21.53V20.2a.5.5,0,1,1,1,0V21.53a.835.835,0,0,0,.834.833h8a.834.834,0,0,0,.833-.833V20.2a.5.5,0,1,1,1,0V21.53a1.835,1.835,0,0,1-1.833,1.833" transform="translate(-1.773 -8.863)" fill="#646871" stroke="#646871" stroke-width="0.2"/><path d="M11.409,16.757a.5.5,0,0,1-.354-.146L7.722,13.277a.5.5,0,0,1,.707-.707l2.98,2.98,2.98-2.98a.5.5,0,0,1,.707.707l-3.334,3.334a.5.5,0,0,1-.354.146" transform="translate(-3.409 -5.591)" fill="#646871" stroke="#646871" stroke-width="0.2"/><path d="M14.136,12.939a.5.5,0,0,1-.5-.5v-8a.5.5,0,1,1,1,0v8a.5.5,0,0,1-.5.5" transform="translate(-6.136 -1.772)" fill="#646871" stroke="#646871" stroke-width="0.2"/></g></svg>