<svg xmlns="http://www.w3.org/2000/svg" xmlns:xlink="http://www.w3.org/1999/xlink" width="32" height="32" viewBox="0 0 32 32"><defs><clipPath id="a"><rect width="32" height="32" fill="none"/></clipPath></defs><g clip-path="url(#a)"><path d="M4.2,8.338h10.18a.8.8,0,0,1,.8.8v.505a.8.8,0,0,1-.8.8H4.2a.8.8,0,0,1-.8-.8V9.138a.8.8,0,0,1,.8-.8" fill="#646871"/><path d="M9.038,3.5h.505a.8.8,0,0,1,.8.8v10.18a.8.8,0,0,1-.8.8H9.038a.8.8,0,0,1-.8-.8V4.3a.8.8,0,0,1,.8-.8" fill="#646871"/><path d="M14.523,26.409,28.09,12.961a2,2,0,0,0,.015-2.826L26.019,8.024A2,2,0,0,0,23.2,8C18.366,12.746,11.626,19.467,9.633,21.461l4.89,4.948" fill="#646871"/><path d="M8.078,22.966l-.955,5.158a.662.662,0,0,0,.771.771L13,27.949Z" fill="#646871"/></g></svg>