<svg id="Component_29_1" data-name="Component 29 – 1" xmlns="http://www.w3.org/2000/svg" width="30.62" height="30.62" viewBox="0 0 30.62 30.62">
  <path id="Path_978" data-name="Path 978" d="M21.766,28.992a.546.546,0,0,1-.513-.352l-1.615-4.195a33.83,33.83,0,0,1-4.608.319,33.7,33.7,0,0,1-4.6-.319L8.814,28.64a.553.553,0,0,1-.515.352H6.576a.553.553,0,0,1-.517-.747l1.657-4.3a27.518,27.518,0,0,1-3.361-1.021A.554.554,0,0,1,4,22.41V20.741a.888.888,0,0,1,.043-.217.561.561,0,0,1,.294-.329.6.6,0,0,1,.228-.048.537.537,0,0,1,.206.041,24.109,24.109,0,0,0,3.932,1.2l3.631-9.444a4.7,4.7,0,0,1,1.283-8.353V1.475a.551.551,0,0,1,.551-.551H15.88a.55.55,0,0,1,.549.551V3.591a4.7,4.7,0,0,1,1.3,8.333l3.641,9.459a23.815,23.815,0,0,0,3.917-1.2.581.581,0,0,1,.21-.041.534.534,0,0,1,.307.093.544.544,0,0,1,.244.456v1.722a.552.552,0,0,1-.357.514,26.565,26.565,0,0,1-3.338,1.01L24,28.245a.561.561,0,0,1-.061.506.544.544,0,0,1-.452.241ZM11.429,21.844a32.306,32.306,0,0,0,3.6.2,32.445,32.445,0,0,0,3.607-.2L15.156,12.8h-.245ZM15.021,5.782a2.306,2.306,0,1,0,2.305,2.307v0a2.306,2.306,0,0,0-2.305-2.3" transform="translate(0 0.076)" fill="#646871"/>
  <rect id="Rectangle_877" data-name="Rectangle 877" width="30.62" height="30.62" fill="none"/>
</svg>
