<svg id="Component_28_1" data-name="Component 28 – 1" xmlns="http://www.w3.org/2000/svg" width="30.62" height="30.62" viewBox="0 0 30.62 30.62">
  <g id="Group_1701" data-name="Group 1701" transform="translate(-16.5 -107)">
    <path id="Path_975" data-name="Path 975" d="M27.049,18.989l-.808-.423-8.312,4.355a5.418,5.418,0,0,1-2.539.615,6.2,6.2,0,0,1-2.7-.615L4.377,18.566l-.807.423s-2.183,1.143,0,2.287l9.557,5.008a5.059,5.059,0,0,0,4.365,0l9.557-5.008s2.182-1.144,0-2.287" transform="translate(16.5 107)" fill="#646871"/>
    <path id="Path_976" data-name="Path 976" d="M27.049,14.167l-.808-.423L17.929,18.1a5.418,5.418,0,0,1-2.539.615,6.2,6.2,0,0,1-2.7-.615L4.377,13.744l-.807.423s-2.183,1.143,0,2.287l9.557,5.007a5.052,5.052,0,0,0,4.365,0l9.557-5.007s2.182-1.144,0-2.287" transform="translate(16.5 107)" fill="#646871"/>
    <path id="Path_977" data-name="Path 977" d="M17.492,4.336a5.059,5.059,0,0,0-4.365,0L3.57,9.344s-2.182,1.143,0,2.287l9.557,5.007a5.052,5.052,0,0,0,4.365,0l9.557-5.007s2.183-1.144,0-2.287Z" transform="translate(16.5 107)" fill="#646871"/>
  </g>
  <rect id="Rectangle_876" data-name="Rectangle 876" width="30.62" height="30.62" fill="none"/>
</svg>
