<svg width="32" height="32" viewBox="0 0 32 32" fill="none" xmlns="http://www.w3.org/2000/svg">
<path d="M6.04867 6H25.8913C26.4658 6 26.94 6.46506 26.94 7.04867V8.88156C26.94 9.45605 26.4749 9.93023 25.8913 9.93023H6.04867C5.47418 9.93023 5 9.46517 5 8.88156V7.04867C5 6.47418 5.46506 6 6.04867 6Z" fill="#646871"/>
<path d="M6.04867 13.9307H25.8913C26.4658 13.9307 26.94 14.3957 26.94 14.9793V16.8122C26.94 17.3867 26.4749 17.8609 25.8913 17.8609H6.04867C5.47418 17.8609 5 17.3958 5 16.8122V14.9793C5 14.4048 5.46506 13.9307 6.04867 13.9307Z" fill="#646871"/>
<path d="M6.04867 21.8613H25.8913C26.4658 21.8613 26.94 22.3264 26.94 22.91V24.7429C26.94 25.3174 26.4749 25.7916 25.8913 25.7916H6.04867C5.47418 25.7916 5 25.3265 5 24.7429V22.91C5 22.3355 5.46506 21.8613 6.04867 21.8613Z" fill="#646871"/>
</svg>
