<svg id="Component_32_1" data-name="Component 32 – 1" xmlns="http://www.w3.org/2000/svg" width="32" height="32" viewBox="0 0 32 32">
  <path id="Union_7" data-name="Union 7" d="M2489.678-3894.318a1.333,1.333,0,0,1-1.333-1.334v-1.621a2.649,2.649,0,0,0-.168-.927,10.067,10.067,0,0,1-2.949-1.707,2.649,2.649,0,0,0-.893.319l-1.351.776h0a1.334,1.334,0,0,1-1.822-.489l-1.985-3.439a1.335,1.335,0,0,1,.491-1.819l1.334-.776a2.648,2.648,0,0,0,.735-.622,10.166,10.166,0,0,1-.143-1.7,10.16,10.16,0,0,1,.143-1.7,2.647,2.647,0,0,0-.735-.623l-1.334-.772a1.333,1.333,0,0,1-.485-1.82l1.985-3.44a1.335,1.335,0,0,1,1.823-.488l1.44.826a2.472,2.472,0,0,0,.777.288,10.071,10.071,0,0,1,3-1.736,2.47,2.47,0,0,0,.138-.811v-1.726a1.333,1.333,0,0,1,1.333-1.334h4a1.335,1.335,0,0,1,1.328,1.334v1.622a2.65,2.65,0,0,0,.167.924,10.073,10.073,0,0,1,2.951,1.707,2.652,2.652,0,0,0,.884-.317l1.348-.777a1.333,1.333,0,0,1,1.821.488l1.988,3.438a1.333,1.333,0,0,1-.488,1.822l-1.333.777a2.656,2.656,0,0,0-.728.614,10.154,10.154,0,0,1,.144,1.708,10.164,10.164,0,0,1-.145,1.714,2.642,2.642,0,0,0,.729.615l1.333.773a1.333,1.333,0,0,1,.493,1.813l-1.985,3.44a1.334,1.334,0,0,1-1.822.488l-1.345-.776a2.637,2.637,0,0,0-.886-.318,10.065,10.065,0,0,1-2.955,1.713,2.647,2.647,0,0,0-.164.922v1.626a1.334,1.334,0,0,1-1.334,1.334Zm-5.1-13.342a7.1,7.1,0,0,0,7.1,7.1,7.1,7.1,0,0,0,7.1-7.1,7.1,7.1,0,0,0-7.1-7.1A7.1,7.1,0,0,0,2484.577-3907.659Z" transform="translate(-2475.677 3922.961)" fill="#646871" stroke="rgba(0,0,0,0)" stroke-width="1"/>
  <rect id="Rectangle_879" data-name="Rectangle 879" width="32" height="32" fill="none"/>
</svg>
