<svg xmlns="http://www.w3.org/2000/svg" xmlns:xlink="http://www.w3.org/1999/xlink" width="32" height="32" viewBox="0 0 32 32"><defs><clipPath id="a"><rect width="32" height="32" fill="none"/></clipPath></defs><g clip-path="url(#a)"><path d="M8.51,6.441A2.755,2.755,0,1,1,5.755,3.686,2.755,2.755,0,0,1,8.51,6.441" fill="#646871"/><path d="M15.837,25.559A2.755,2.755,0,1,1,13.082,22.8a2.756,2.756,0,0,1,2.755,2.755" fill="#646871"/><path d="M29,17.088a2.755,2.755,0,1,1-2.755-2.755A2.755,2.755,0,0,1,29,17.088" fill="#646871"/><path d="M-120-228.354l1.679-.645,6.985,18.226,12.358-7.953.975,1.513-14.221,9.152Z" transform="translate(124.861 234.978)" fill="#646871"/><path d="M22.447,11.287H18.938V14.8H16.773V11.287H13.264V9.123h3.509V5.613h2.165v3.51h3.509Z" fill="#646871"/></g></svg>