<svg xmlns="http://www.w3.org/2000/svg" xmlns:xlink="http://www.w3.org/1999/xlink" width="32" height="32" viewBox="0 0 32 32"><defs><clipPath id="a"><rect width="32" height="32" fill="none"/></clipPath></defs><g clip-path="url(#a)"><path d="M20.736,20.357c-.019,0-.037,0-.056.006l-2.926-9.084a2.617,2.617,0,1,0-3.849-2.9H7.16A2.619,2.619,0,1,0,4.591,11.64l2.938,9.123a2.617,2.617,0,1,0,3.89,2.968h6.815a2.618,2.618,0,1,0,2.5-3.374m-2.5,1.874H11.419a2.612,2.612,0,0,0-2.444-1.868L6.033,11.226A2.617,2.617,0,0,0,7.09,9.883h6.885a2.61,2.61,0,0,0,2.316,1.745l2.961,9.191a2.621,2.621,0,0,0-1.018,1.412" fill="#646871"/><path d="M26.643,12.813V9.471H24.581v3.342H21.239v2.061h3.342v3.342h2.062V14.874h3.342V12.813Z" fill="#646871"/></g></svg>