<svg id="Area" xmlns="http://www.w3.org/2000/svg" xmlns:xlink="http://www.w3.org/1999/xlink" width="32" height="32" viewBox="0 0 32 32">
  <defs>
    <clipPath id="clip-path">
      <rect id="Rectangle_1133" data-name="Rectangle 1133" width="32" height="32" fill="none"/>
    </clipPath>
  </defs>
  <g id="Group_2117" data-name="Group 2117" clip-path="url(#clip-path)">
    <path id="Path_1245" data-name="Path 1245" d="M14.3,21.979l-.012-2.318H16.55l.015,2.318Zm3.212-5.65a3.547,3.547,0,0,0-.457.46,2.111,2.111,0,0,0-.289.474,2.282,2.282,0,0,0-.153.55,4.561,4.561,0,0,0-.051.7V18.7H14.269v-.185a5.419,5.419,0,0,1,.349-2,4.993,4.993,0,0,1,.967-1.562l.325-.366a4.1,4.1,0,0,0,.4-.5,1.024,1.024,0,0,0,.149-.315A1.548,1.548,0,0,0,16.5,13.4a.764.764,0,0,0-.071-.333.887.887,0,0,0-.2-.259,1.127,1.127,0,0,0-.309-.18,1.075,1.075,0,0,0-.36-.064c-.529,0-.875.376-1.061,1.156l-.04.167-2.369-.387.033-.187a4.387,4.387,0,0,1,.45-1.335,3.607,3.607,0,0,1,4.535-1.708,3.335,3.335,0,0,1,1.055.7,3.24,3.24,0,0,1,.7,1.062,3.479,3.479,0,0,1,.247,1.319,4.172,4.172,0,0,1-1.6,2.975" fill="#646871"/>
    <path id="Path_1246" data-name="Path 1246" d="M18.153,28.749a2.593,2.593,0,0,1-1.3-.352L1.575,19.543a2.692,2.692,0,0,1-.488-.368A2.59,2.59,0,0,1,1,15.515L11.991,4.049a2.58,2.58,0,0,1,3.162-.45l15.272,8.853A2.589,2.589,0,0,1,31,16.478L20.022,27.949a2.59,2.59,0,0,1-1.869.8M13.343,5.14,2.079,16.9a.631.631,0,0,0-.176.455.642.642,0,0,0,.2.449.685.685,0,0,0,.122.092L17.884,26.97a.639.639,0,0,0,.786-.111L29.922,15.1a.646.646,0,0,0-.022-.909.752.752,0,0,0-.12-.09L14.125,5.031a.639.639,0,0,0-.782.111" fill="#646871"/>
  </g>
</svg>
