<svg xmlns="http://www.w3.org/2000/svg" xmlns:xlink="http://www.w3.org/1999/xlink" width="16" height="16" viewBox="0 0 16 16"><defs><clipPath id="a"><rect width="16" height="16" fill="none"/></clipPath></defs><g clip-path="url(#a)"><path d="M9.9,11.806l-.963-.963a.292.292,0,0,1,0-.413l2.224-2.223a.292.292,0,0,0,0-.413L8.939,5.57a.292.292,0,0,1,0-.413L9.9,4.194a.292.292,0,0,1,.413,0l3.6,3.6a.292.292,0,0,1,0,.413l-3.6,3.6a.292.292,0,0,1-.413,0" fill="#646871"/><path d="M11.594,8.973h-9.3A.292.292,0,0,1,2,8.681V7.319a.292.292,0,0,1,.292-.292h9.3a.292.292,0,0,1,.292.292V8.681a.292.292,0,0,1-.292.292" fill="#646871"/></g></svg>