<svg xmlns="http://www.w3.org/2000/svg" xmlns:xlink="http://www.w3.org/1999/xlink" width="16" height="16" viewBox="0 0 16 16"><defs><clipPath id="a"><rect width="16" height="16" fill="none"/></clipPath></defs><g clip-path="url(#a)"><path d="M4.35,5.273H2.887A.889.889,0,0,1,2,4.386V2.924a.888.888,0,0,1,.887-.888H4.35a.887.887,0,0,1,.887.887h0V4.386a.887.887,0,0,1-.887.887" fill="#646871"/><path d="M4.35,9.589H2.887A.889.889,0,0,1,2,8.7V7.24a.888.888,0,0,1,.887-.888H4.35a.887.887,0,0,1,.887.887h0V8.7a.887.887,0,0,1-.887.887" fill="#646871"/><path d="M4.35,13.964H2.887A.889.889,0,0,1,2,13.077V11.615a.888.888,0,0,1,.887-.888H4.35a.887.887,0,0,1,.887.887h0v1.462a.887.887,0,0,1-.887.887" fill="#646871"/><path d="M13.7,4.176H7.026a.3.3,0,0,1-.3-.3V3.433a.3.3,0,0,1,.3-.3H13.7a.3.3,0,0,1,.3.3v.443a.3.3,0,0,1-.3.3" fill="#646871"/><path d="M13.7,8.492H7.026a.3.3,0,0,1-.3-.3V7.749a.3.3,0,0,1,.3-.3H13.7a.3.3,0,0,1,.3.3v.443a.3.3,0,0,1-.3.3" fill="#646871"/><path d="M13.7,12.867H7.026a.3.3,0,0,1-.3-.3v-.443a.3.3,0,0,1,.3-.3H13.7a.3.3,0,0,1,.3.3v.443a.3.3,0,0,1-.3.3" fill="#646871"/></g></svg>