<svg id="Attributes" xmlns="http://www.w3.org/2000/svg" xmlns:xlink="http://www.w3.org/1999/xlink" width="32" height="32" viewBox="0 0 32 32">
  <defs>
    <clipPath id="clip-path">
      <rect id="Rectangle_1129" data-name="Rectangle 1129" width="32" height="32" fill="none"/>
    </clipPath>
  </defs>
  <g id="Group_2108" data-name="Group 2108" clip-path="url(#clip-path)">
    <path id="Path_1232" data-name="Path 1232" d="M4.585,17.165h6.7v4.521h-6.7a1.122,1.122,0,0,1-1.122-1.122V18.287a1.122,1.122,0,0,1,1.122-1.122" fill="#646871"/>
    <path id="Path_1233" data-name="Path 1233" d="M13.62,3.464h13.8a1.121,1.121,0,0,1,1.121,1.122V6.863a1.121,1.121,0,0,1-1.121,1.122H13.62Z" fill="#646871"/>
    <path id="Path_1234" data-name="Path 1234" d="M4.585,3.463h6.7V7.984h-6.7A1.122,1.122,0,0,1,3.463,6.862V4.585A1.122,1.122,0,0,1,4.585,3.463" fill="#646871"/>
    <path id="Path_1235" data-name="Path 1235" d="M4.585,10.315h6.7v4.521h-6.7a1.122,1.122,0,0,1-1.122-1.122V11.437a1.122,1.122,0,0,1,1.122-1.122" fill="#646871"/>
    <path id="Path_1236" data-name="Path 1236" d="M13.62,10.315h13.8a1.121,1.121,0,0,1,1.121,1.122v2.277a1.121,1.121,0,0,1-1.121,1.122H13.62Z" fill="#646871"/>
    <path id="Path_1237" data-name="Path 1237" d="M13.62,17.165h13.8a1.121,1.121,0,0,1,1.121,1.122v2.277a1.121,1.121,0,0,1-1.121,1.122H13.62Z" fill="#646871"/>
    <path id="Path_1238" data-name="Path 1238" d="M4.585,24.015h6.7v4.521h-6.7a1.122,1.122,0,0,1-1.122-1.122V25.137a1.122,1.122,0,0,1,1.122-1.122" fill="#646871"/>
    <path id="Path_1239" data-name="Path 1239" d="M13.62,24.016h13.8a1.121,1.121,0,0,1,1.121,1.122v2.277a1.121,1.121,0,0,1-1.121,1.122H13.62Z" fill="#646871"/>
  </g>
</svg>
