<?xml version="1.0" encoding="utf-8"?>
<!-- Generator: Adobe Illustrator 27.9.0, SVG Export Plug-In . SVG Version: 6.00 Build 0)  -->
<svg version="1.1" id="Layer_1" xmlns="http://www.w3.org/2000/svg" xmlns:xlink="http://www.w3.org/1999/xlink" x="0px" y="0px"
	 viewBox="0 0 15 15" style="enable-background:new 0 0 15 15;" xml:space="preserve">
<style type="text/css">
	.st0{fill:none;}
	.st1{fill:#646871;}
</style>
<path id="Path_2106" class="st0" d="M0,0h15v15H0V0z"/>
<path id="Path_1173" class="st1" d="M7.4,12.2l-0.6,0.6C6.6,13,6.2,13,6,12.8l0,0L1.1,7.9c-0.2-0.2-0.2-0.6,0-0.8l0,0l0,0L6,2.2
	C6.2,2,6.6,2,6.8,2.2l0,0l0,0l0.6,0.6c0.2,0.2,0.2,0.6,0,0.8l0,0l0,0L4.3,6.5h9.2c0.3,0,0.6,0.3,0.6,0.6l0,0v0.8
	c0,0.3-0.2,0.6-0.6,0.6l0,0H4.3l3,2.9C7.6,11.6,7.6,12,7.4,12.2L7.4,12.2"/>
</svg>
