<svg xmlns="http://www.w3.org/2000/svg" xmlns:xlink="http://www.w3.org/1999/xlink" width="24" height="24" viewBox="0 0 24 24"><defs><clipPath id="a"><rect width="24" height="24" fill="none"/></clipPath></defs><g clip-path="url(#a)"><path d="M12.7,9.536H11.3a.3.3,0,0,1-.3-.3V3.307a.3.3,0,0,1,.3-.3h1.4a.3.3,0,0,1,.3.3V9.236a.3.3,0,0,1-.3.3" fill="#fff"/><path d="M12.7,21.006H11.3a.3.3,0,0,1-.3-.3V14.777a.3.3,0,0,1,.3-.3h1.4a.3.3,0,0,1,.3.3v5.929a.3.3,0,0,1-.3.3" fill="#fff"/><path d="M14.471,12.706v-1.4a.3.3,0,0,1,.3-.3H20.7a.3.3,0,0,1,.3.3v1.4a.3.3,0,0,1-.3.3H14.771a.3.3,0,0,1-.3-.3" fill="#fff"/><path d="M3,12.706v-1.4a.3.3,0,0,1,.3-.3H9.229a.3.3,0,0,1,.3.3v1.4a.3.3,0,0,1-.3.3H3.3a.3.3,0,0,1-.3-.3" fill="#fff"/></g></svg>