<svg xmlns="http://www.w3.org/2000/svg" xmlns:xlink="http://www.w3.org/1999/xlink" width="32" height="32" viewBox="0 0 32 32"><defs><clipPath id="a"><rect width="32" height="32" fill="none"/></clipPath></defs><g clip-path="url(#a)"><path d="M4,29.073a1,1,0,0,0,1-1v-6a1,1,0,0,0-2,0v6a1,1,0,0,0,1,1" fill="#646871"/><path d="M28,29.073a1,1,0,0,0,1-1v-6a1,1,0,0,0-2,0v6a1,1,0,0,0,1,1" fill="#646871"/><path d="M20.391,28.468a1,1,0,0,0,1.414,0l2.688-2.688a1,1,0,0,0,0-1.414l-2.688-2.687a1,1,0,0,0-1.414,1.414l.98.98H9.512l.981-.98a1,1,0,0,0-1.415-1.414L6.391,24.366a1,1,0,0,0,0,1.414l2.687,2.688a1,1,0,0,0,1.415-1.414l-.981-.981H21.371l-.98.981a1,1,0,0,0,0,1.414" fill="#646871"/></g><g clip-path="url(#a)"><path d="M6.671,10.268H6.79l-.176.43a8.32,8.32,0,0,0-.522,2.647V18.64A1.11,1.11,0,0,0,7.2,19.749H8.65A1.11,1.11,0,0,0,9.759,18.64V17.317H22.226V18.64a1.11,1.11,0,0,0,1.109,1.109h1.449a1.111,1.111,0,0,0,1.11-1.109V13.345a8.321,8.321,0,0,0-.523-2.647l-.176-.43h.134a1.111,1.111,0,0,0,1.109-1.11V8.537a.853.853,0,0,0-.859-.9,1.068,1.068,0,0,0-.277.038l-1.054.291L23.154,5.3a2.386,2.386,0,0,0-2.042-1.37H10.873A2.386,2.386,0,0,0,8.831,5.3L7.738,7.958,6.7,7.671a1.068,1.068,0,0,0-.277-.038.853.853,0,0,0-.859.9v.621a1.11,1.11,0,0,0,1.109,1.11m17.087,2.987v1.509a.445.445,0,0,1-.443.444H20.171a.446.446,0,0,1-.444-.444V13.255a.446.446,0,0,1,.444-.444h3.144a.445.445,0,0,1,.443.444M8.534,9.665l1.655-4.031a1.433,1.433,0,0,1,1.225-.821h9.158a1.433,1.433,0,0,1,1.224.821l1.655,4.031a.553.553,0,0,1-.55.821H9.085a.554.554,0,0,1-.551-.821M8.2,13.255a.446.446,0,0,1,.444-.444h3.144a.445.445,0,0,1,.443.444v1.509a.445.445,0,0,1-.443.444H8.641a.446.446,0,0,1-.444-.444Z" fill="#646871"/></g></svg>