<svg id="Clip" xmlns="http://www.w3.org/2000/svg" xmlns:xlink="http://www.w3.org/1999/xlink" width="32" height="32" viewBox="0 0 32 32">
  <defs>
    <clipPath id="clip-path">
      <rect id="Rectangle_1166" data-name="Rectangle 1166" width="32" height="32" fill="none"/>
    </clipPath>
  </defs>
  <g id="Group_2152" data-name="Group 2152" clip-path="url(#clip-path)">
    <path id="Path_1298" data-name="Path 1298" d="M31.5,15.519,24.169,2.812a.963.963,0,0,0-.832-.481H8.664a.963.963,0,0,0-.833.481L.8,15a.6.6,0,0,0,.219.82l.626.362a.6.6,0,0,0,.82-.22L9.219,4.254H22.781L29.563,16,22.781,27.745H9.264a.6.6,0,0,0-.6.6v.723a.6.6,0,0,0,.6.6H23.337a.96.96,0,0,0,.832-.481L31.5,16.48a.959.959,0,0,0,0-.961" fill="#646871"/>
    <path id="Path_1299" data-name="Path 1299" d="M9.388,23.634a2.505,2.505,0,0,0-.554-.93l1.149-2.291,6.731-.3,1.306-1.43-.477-.436-6.622.3,2.971-5.923-.2-.613-1.837.61-3.02,6.02-2.558.116a2.494,2.494,0,0,0-.623-.886,2.582,2.582,0,1,0,.164,3.647,2.48,2.48,0,0,0,.541-.938l1.539-.069L7.2,21.886A2.489,2.489,0,0,0,6.125,22a2.581,2.581,0,1,0,3.263,1.636M4.862,20.643a1.291,1.291,0,1,1-.083-1.823h0a1.29,1.29,0,0,1,.082,1.822M9.1,19.408a.322.322,0,0,1,.187-.161l.007,0a.314.314,0,0,1,.23.019c.005,0,.012,0,.018.007a.327.327,0,0,1,.1.114.311.311,0,0,1,.053.11c0,.013,0,.026,0,.04a.307.307,0,0,1-.071.2l-.005.006a.317.317,0,0,1-.425.032.372.372,0,0,1-.055-.064.316.316,0,0,1-.047-.1.321.321,0,0,1,.015-.2M7.344,25.673a1.291,1.291,0,1,1,.819-1.632h0a1.29,1.29,0,0,1-.819,1.631" fill="#646871"/>
  </g>
</svg>
