<?xml version="1.0" encoding="utf-8"?>
<!-- Generator: Adobe Illustrator 27.9.0, SVG Export Plug-In . SVG Version: 6.00 Build 0)  -->
<svg version="1.1" id="Layer_1" xmlns="http://www.w3.org/2000/svg" xmlns:xlink="http://www.w3.org/1999/xlink" x="0px" y="0px"
	 viewBox="0 0 15 15" style="enable-background:new 0 0 15 15;" xml:space="preserve">
<style type="text/css">
	.st0{fill:none;}
	.st1{fill:#646871;}
</style>
<g>
	<path id="Path_2107_00000103974729970019755240000010819500901068568222_" class="st0" d="M0,0h15v15H0V0z"/>
	<g>
		<path id="Path_1171_00000168834296374084620130000001145105523150039715_" class="st1" d="M3.2,10.2l7.1-7.1
			c0.2-0.2,0.5-0.2,0.7,0c0,0,0,0,0,0l0.7,0.7c0.2,0.2,0.2,0.5,0,0.7l-7.1,7.1c-0.2,0.2-0.5,0.2-0.7,0c0,0,0,0,0,0L3.2,11
			C2.9,10.8,2.9,10.5,3.2,10.2"/>
		<path id="Path_1172_00000072268718083911636940000001260080926981118336_" class="st1" d="M3.2,3.8l0.7-0.7c0.2-0.2,0.5-0.2,0.7,0
			l7.1,7.1c0.2,0.2,0.2,0.5,0,0.7L11,11.7c-0.2,0.2-0.5,0.2-0.7,0c0,0,0,0,0,0L3.2,4.6C2.9,4.4,2.9,4,3.2,3.8"/>
	</g>
</g>
</svg>
