<svg xmlns="http://www.w3.org/2000/svg" xmlns:xlink="http://www.w3.org/1999/xlink" width="32" height="32" viewBox="0 0 32 32"><defs><clipPath id="a"><rect width="32" height="32" fill="none"/></clipPath></defs><g clip-path="url(#a)"><g transform="translate(-0.11 0.807)"><path d="M26.439,12.58a1.544,1.544,0,0,0-.459.066A4.045,4.045,0,0,0,24.8,9.759,3.933,3.933,0,0,0,22,8.6a3.99,3.99,0,0,0-1.326.231l-.139.05-.1-.108a4.9,4.9,0,0,0-3.618-1.576,4.959,4.959,0,0,0-4.475,2.839,5.891,5.891,0,0,1,3.769,1.536,4.966,4.966,0,0,1,4.7,1.322,5.021,5.021,0,0,1,1.371,2.542,4.487,4.487,0,0,1,4,4.051h.255l.433-.044a3.443,3.443,0,0,0-.434-6.859Z" fill="#646871"/><path d="M20.141,17.97a4.039,4.039,0,0,0-1.179-2.886,3.931,3.931,0,0,0-2.8-1.163,3.988,3.988,0,0,0-1.325.231L14.7,14.2l-.1-.108a4.9,4.9,0,0,0-3.618-1.576A4.963,4.963,0,0,0,6.02,17.474l.008.535s-.73-.1-.858-.083A3.449,3.449,0,0,0,5.492,24.8v.006H20.6l.434-.043A3.443,3.443,0,0,0,20.6,17.9,1.552,1.552,0,0,0,20.141,17.97Z" transform="translate(1 -1)" fill="#646871"/></g></g></svg>