<svg id="Copy" xmlns="http://www.w3.org/2000/svg" xmlns:xlink="http://www.w3.org/1999/xlink" width="32" height="32" viewBox="0 0 32 32">
  <defs>
    <clipPath id="clip-path">
      <rect id="Rectangle_1171" data-name="Rectangle 1171" width="32" height="32" fill="none"/>
    </clipPath>
  </defs>
  <g id="Group_2162" data-name="Group 2162" clip-path="url(#clip-path)">
    <path id="Path_1321" data-name="Path 1321" d="M26.883,6.865l-4.995-4.03a.882.882,0,0,0-.552-.2H10.19a.877.877,0,0,0-.877.877V6.255H5.669a.877.877,0,0,0-.877.877V28.486a.877.877,0,0,0,.877.877h16.14a.877.877,0,0,0,.877-.877V25.723H26.33a.877.877,0,0,0,.877-.877V7.549a.875.875,0,0,0-.324-.684m-5.1-1.882L25.311,7.85H21.78Zm-.848,22.626H6.546V8.009H9.313V24.846a.877.877,0,0,0,.877.877H20.932Zm-9.865-3.64V4.369h9.018V8.7a.847.847,0,0,0,.848.847h4.52V23.969Z" fill="#646871"/>
  </g>
</svg>
