<svg xmlns="http://www.w3.org/2000/svg" xmlns:xlink="http://www.w3.org/1999/xlink" width="32" height="32" viewBox="0 0 32 32"><defs><clipPath id="a"><rect width="32" height="32" transform="translate(117 428)" fill="#fff"/></clipPath><clipPath id="b"><rect width="29.883" height="29.883" transform="translate(1.058 1.059)" fill="none"/></clipPath></defs><g transform="translate(-117 -428)" clip-path="url(#a)"><g transform="translate(116.942 427.941)"><g clip-path="url(#b)"><path d="M4.9,19.239l-2.729-2.2a.265.265,0,0,1-.039-.373.294.294,0,0,1,.039-.04L4.9,14.42a.266.266,0,0,1,.373.041.262.262,0,0,1,.058.166v4.4a.264.264,0,0,1-.431.206" fill="#646871"/><path d="M4.754,18.076H8.163a.221.221,0,0,0,.22-.219V15.8a.219.219,0,0,0-.22-.219H4.754a.219.219,0,0,0-.219.219v2.055a.22.22,0,0,0,.219.219" fill="#646871"/><path d="M27,14.423l2.73,2.2a.265.265,0,0,1,.039.373.246.246,0,0,1-.039.04l-2.729,2.2a.266.266,0,0,1-.373-.041.262.262,0,0,1-.058-.166V14.629a.264.264,0,0,1,.431-.206" fill="#646871"/><path d="M27.149,15.584H23.74a.221.221,0,0,0-.22.219v2.055a.22.22,0,0,0,.22.219h3.409a.219.219,0,0,0,.219-.219V15.8a.22.22,0,0,0-.219-.219" fill="#646871"/><path d="M11.12,28.717a.6.6,0,0,1-.6-.6h0V26.925a.6.6,0,0,1,1.194,0h0v.155l.13-.077a.6.6,0,0,1,.606,1.028l-1.028.6a.593.593,0,0,1-.3.082" fill="#646871"/><path d="M14.742,26.59a.6.6,0,0,1-.3-1.112l2.593-1.523a.6.6,0,0,1,.6,1.027l-2.592,1.525a.6.6,0,0,1-.3.082" fill="#646871"/><path d="M19.927,23.542a.6.6,0,0,1-.3-1.111L20.359,22v-.852a.6.6,0,0,1,1.194,0h0V22.34a.6.6,0,0,1-.294.516l-1.028.6a.593.593,0,0,1-.3.082" fill="#646871"/><path d="M20.958,19.446a.6.6,0,0,1-.6-.6v-2.3a.6.6,0,0,1,1.194,0v2.3a.6.6,0,0,1-.6.6m0-4.592a.6.6,0,0,1-.6-.6v-2.3a.6.6,0,0,1,1.194,0h0v2.3a.6.6,0,0,1-.6.6m0-4.592a.6.6,0,0,1-.6-.6h0v-2.3a.6.6,0,0,1,1.194,0v2.3a.6.6,0,0,1-.6.6h0" fill="#646871"/><path d="M20.956,5.673a.6.6,0,0,1-.6-.6h0v-.15L20.229,5a.6.6,0,0,1-.606-1.028l1.028-.6a.6.6,0,0,1,.9.516V5.075a.6.6,0,0,1-.6.6h0" fill="#646871"/><path d="M14.742,8.13a.6.6,0,0,1-.3-1.112l2.593-1.524a.6.6,0,0,1,.6,1.027L15.045,8.047a.6.6,0,0,1-.3.082" fill="#646871"/><path d="M11.12,11.45a.6.6,0,0,1-.6-.6h0V9.659a.6.6,0,0,1,.294-.516l1.028-.6a.6.6,0,0,1,.6,1.028L11.714,10v.851a.6.6,0,0,1-.6.6h0" fill="#646871"/><path d="M11.12,25.226a.6.6,0,0,1-.6-.6v-2.3a.6.6,0,0,1,1.194,0v2.3a.6.6,0,0,1-.6.6m0-4.592a.6.6,0,0,1-.6-.6v-2.3a.6.6,0,0,1,1.194,0v2.3a.6.6,0,0,1-.6.6m0-4.592a.6.6,0,0,1-.6-.6h0V13.154a.6.6,0,0,1,1.194,0h0v2.3a.6.6,0,0,1-.6.6h0" fill="#646871"/></g></g></g></svg>