<svg id="Cut" xmlns="http://www.w3.org/2000/svg" xmlns:xlink="http://www.w3.org/1999/xlink" width="32" height="32" viewBox="0 0 32 32">
  <defs>
    <clipPath id="clip-path">
      <rect id="Rectangle_1173" data-name="Rectangle 1173" width="32" height="32" fill="none"/>
    </clipPath>
  </defs>
  <g id="Group_2166" data-name="Group 2166" clip-path="url(#clip-path)">
    <path id="Path_1328" data-name="Path 1328" d="M13.014,10.484a4.867,4.867,0,0,0,.457-2.072A5.058,5.058,0,1,0,8.413,13.47a4.894,4.894,0,0,0,2.072-.457L13.472,16l-2.987,2.987a4.894,4.894,0,0,0-2.072-.457,5.058,5.058,0,1,0,5.058,5.058,4.864,4.864,0,0,0-.457-2.072L16,18.529l8.851,8.851h3.794V26.114Zm-4.6.457A2.53,2.53,0,1,1,10.942,8.41v0A2.528,2.528,0,0,1,8.414,10.941Zm0,15.173a2.529,2.529,0,1,1,2.529-2.529,2.529,2.529,0,0,1-2.529,2.529ZM16,16.631a.624.624,0,1,1,.016,0H16M24.851,4.619,17.265,12.2l2.529,2.529,8.851-8.85V4.619Z" fill="#646871"/>
  </g>
</svg>
