<svg id="Delete_bt_icon" data-name="Delete bt icon" xmlns="http://www.w3.org/2000/svg" width="7.774" height="10" viewBox="0 0 7.774 10">
  <path id="Path_1329" data-name="Path 1329" d="M13.527,3.8h-1.6l-.478-.46a.269.269,0,0,0-.187-.074H8.709a.269.269,0,0,0-.186.074l-.478.46h-1.6a.34.34,0,0,0-.346.333v.4a.34.34,0,0,0,.346.333h7.082a.34.34,0,0,0,.346-.333v-.4a.34.34,0,0,0-.346-.333" transform="translate(-6.099 -3.264)" fill="#151515"/>
  <path id="Path_1330" data-name="Path 1330" d="M7.514,8.921v6.414a1.1,1.1,0,0,0,1.118,1.073H13.1a1.1,1.1,0,0,0,1.118-1.069V8.921Zm2.506,6.162H9.287V9.914h.734Zm2.427,0h-.734V9.914h.734Z" transform="translate(-6.979 -6.408)" fill="#151515"/>
</svg>
