<svg id="Distance" xmlns="http://www.w3.org/2000/svg" xmlns:xlink="http://www.w3.org/1999/xlink" width="32" height="32" viewBox="0 0 32 32">
  <defs>
    <clipPath id="clip-path">
      <rect id="Rectangle_1132" data-name="Rectangle 1132" width="32" height="32" fill="none"/>
    </clipPath>
  </defs>
  <g id="Group_2115" data-name="Group 2115" clip-path="url(#clip-path)">
    <path id="Path_1243" data-name="Path 1243" d="M1,13.745A.746.746,0,0,1,.255,13V3A.746.746,0,0,1,1,2.255H31A.746.746,0,0,1,31.745,3V13a.746.746,0,0,1-.745.745Zm.745-1.49h28.51V3.745h-3.51V8.25a.5.5,0,0,1-.494.495h-.5a.5.5,0,0,1-.494-.495V3.745h-3.51V6.25a.5.5,0,0,1-.494.495h-.5a.5.5,0,0,1-.494-.495V3.745h-3.51V8.25a.5.5,0,0,1-.494.495h-.5a.5.5,0,0,1-.494-.495V3.745h-3.51V6.25a.5.5,0,0,1-.494.495h-.5a.5.5,0,0,1-.494-.495V3.745H6.745V8.25a.5.5,0,0,1-.494.495h-.5a.5.5,0,0,1-.494-.495V3.745H1.745Z" fill="#646871"/>
    <path id="Path_1244" data-name="Path 1244" d="M.471,23.714a.745.745,0,0,1,0-1.051l4.4-4.4a.6.6,0,0,1,.848,0l.2.2a.6.6,0,0,1,0,.85L2.8,22.439H29.2l-3.122-3.13a.6.6,0,0,1,0-.848l.2-.2a.6.6,0,0,1,.848,0l4.395,4.393a.747.747,0,0,1,0,1.052l-4.395,4.4a.6.6,0,0,1-.849,0l-.2-.2a.6.6,0,0,1,0-.849l3.12-3.12H2.8l3.121,3.13a.6.6,0,0,1,0,.848l-.2.2a.6.6,0,0,1-.848,0Z" fill="#646871"/>
  </g>
</svg>
