<svg xmlns="http://www.w3.org/2000/svg" xmlns:xlink="http://www.w3.org/1999/xlink" width="32" height="32" viewBox="0 0 32 32"><defs><clipPath id="a"><rect width="32" height="32" fill="none"/></clipPath></defs><g clip-path="url(#a)"><path d="M28.282,19.848h0l-.846-.443-8.7,4.558a5.662,5.662,0,0,1-2.654.642,6.508,6.508,0,0,1-2.827-.642l-8.7-4.558-.845.443s-2.278,1.2,0,2.393l10,5.24a5.292,5.292,0,0,0,4.568,0l10-5.24s2.283-1.2,0-2.394" fill="#646871"/><path d="M28.282,14.584v0l-1.4-.736-1.69.887,1.991,1.046-9.6,5.031a3.721,3.721,0,0,1-3.165,0l-9.6-5.031,2-1.046-1.69-.887-1.4.736s-2.279,1.2,0,2.392l10,5.24a5.288,5.288,0,0,0,4.566,0l10-5.236s2.284-1.2,0-2.392" fill="#646871"/></g><g clip-path="url(#a)"><path d="M28.282,9.757l-10-5.239a5.3,5.3,0,0,0-4.567,0l-10,5.239s-2.279,1.2,0,2.394l10,5.238a5.283,5.283,0,0,0,4.567,0l10-5.238s2.284-1.2,0-2.394" fill="#646871"/></g></svg>