<svg xmlns="http://www.w3.org/2000/svg" xmlns:xlink="http://www.w3.org/1999/xlink" width="32" height="32" viewBox="0 0 32 32"><defs><clipPath id="a"><rect width="32" height="32" fill="none"/></clipPath></defs><g clip-path="url(#a)"><path d="M4.457,25.828H27.5a2.46,2.46,0,0,0,2.457-2.457V8.629A2.459,2.459,0,0,0,27.5,6.172H4.457A2.46,2.46,0,0,0,2,8.629V23.371a2.461,2.461,0,0,0,2.457,2.457M4.8,24.19l7.076-7.031,1.2,1.2a4.095,4.095,0,0,0,5.79,0l1.206-1.2,7.076,7.031ZM28.318,8.963V23.038L21.239,16ZM27.155,7.81c-.5.5-9.141,9.093-9.44,9.389a2.456,2.456,0,0,1-3.476,0C14.038,17,5.495,8.5,4.8,7.81ZM3.638,8.963,10.716,16,3.638,23.038Z" fill="#646871"/></g></svg>