<svg id="Explode_All" data-name="Explode All" xmlns="http://www.w3.org/2000/svg" xmlns:xlink="http://www.w3.org/1999/xlink" width="32" height="32" viewBox="0 0 32 32">
  <defs>
    <clipPath id="clip-path">
      <rect id="Rectangle_1170" data-name="Rectangle 1170" width="32" height="32" fill="none"/>
    </clipPath>
  </defs>
  <g id="Group_2160" data-name="Group 2160" clip-path="url(#clip-path)">
    <path id="Path_1313" data-name="Path 1313" d="M21.718,23.66l2.14-3.533a.4.4,0,0,1,.693.015l1.989,3.619a.4.4,0,0,1-.359.592l-4.129-.086a.4.4,0,0,1-.334-.607" fill="#646871"/>
    <path id="Path_1314" data-name="Path 1314" d="M19.906,20.4l.2-.341a.6.6,0,0,1,.824-.206l2.688,1.611a.6.6,0,0,1,.207.823l-.2.34a.6.6,0,0,1-.823.207L20.112,21.22a.6.6,0,0,1-.206-.822" fill="#646871"/>
    <path id="Path_1315" data-name="Path 1315" d="M10.524,11.9l-2.2,3.495a.4.4,0,0,1-.692-.027L5.7,11.714a.4.4,0,0,1,.369-.587l4.127.158a.4.4,0,0,1,.323.613" fill="#646871"/>
    <path id="Path_1316" data-name="Path 1316" d="M12.28,15.191l-.209.336a.6.6,0,0,1-.828.192l-2.66-1.657a.6.6,0,0,1-.191-.827L8.6,12.9a.6.6,0,0,1,.826-.192l2.66,1.657a.6.6,0,0,1,.193.827" fill="#646871"/>
    <path id="Path_1317" data-name="Path 1317" d="M13.174,21.522H4.852a.6.6,0,0,1-.519-.3L.173,14.015a.6.6,0,0,1,0-.6l4.16-7.206a.6.6,0,0,1,.519-.3h8.322a.6.6,0,0,1,.519.3l4.161,7.206a.6.6,0,0,1,0,.6l-4.161,7.207a.6.6,0,0,1-.519.3m-7.687-1.7h7.052l3.527-6.108L12.539,7.608H5.487L1.961,13.715Z" fill="#646871"/>
    <path id="Path_1318" data-name="Path 1318" d="M27.147,30.092H18.825a.6.6,0,0,1-.519-.3l-4.16-7.207a.6.6,0,0,1,0-.6l4.16-7.206a.6.6,0,0,1,.519-.3h8.322a.6.6,0,0,1,.519.3l4.161,7.206a.6.6,0,0,1,0,.6l-4.161,7.207a.6.6,0,0,1-.519.3m-7.687-1.7h7.052l3.527-6.108-3.527-6.107H19.46l-3.526,6.107Z" fill="#646871"/>
    <path id="Path_1319" data-name="Path 1319" d="M24.741,9.553,20.58,2.347a.6.6,0,0,0-.519-.3H11.739a.6.6,0,0,0-.519.3L9.739,4.912H11.7l.674-1.167h7.052l3.526,6.108-2.021,3.5h1.962l1.848-3.2a.6.6,0,0,0,0-.6" fill="#646871"/>
    <path id="Path_1320" data-name="Path 1320" d="M31.827,11.582,27.666,4.375a.6.6,0,0,0-.519-.3H22.784l.981,1.7h2.747l3.526,6.108-1.4,2.419.981,1.7,2.2-3.817a.6.6,0,0,0,0-.6" fill="#646871"/>
  </g>
</svg>
