<svg id="Explode" xmlns="http://www.w3.org/2000/svg" xmlns:xlink="http://www.w3.org/1999/xlink" width="32" height="32" viewBox="0 0 32 32">
  <defs>
    <clipPath id="clip-path">
      <rect id="Rectangle_1172" data-name="Rectangle 1172" width="32" height="32" fill="none"/>
    </clipPath>
  </defs>
  <g id="Group_2164" data-name="Group 2164" clip-path="url(#clip-path)">
    <path id="Path_1322" data-name="Path 1322" d="M13.174,19.522H4.852a.6.6,0,0,1-.519-.3L.173,12.015a.6.6,0,0,1,0-.6l4.16-7.206a.6.6,0,0,1,.519-.3h8.322a.6.6,0,0,1,.519.3l4.161,7.206a.6.6,0,0,1,0,.6l-4.161,7.207a.6.6,0,0,1-.519.3m-7.687-1.7h7.052l3.527-6.108L12.539,5.608H5.487L1.961,11.715Z" fill="#646871"/>
    <path id="Path_1323" data-name="Path 1323" d="M21.718,21.66l2.14-3.533a.4.4,0,0,1,.693.015l1.989,3.619a.4.4,0,0,1-.359.592l-4.129-.086a.4.4,0,0,1-.334-.607" fill="#646871"/>
    <path id="Path_1324" data-name="Path 1324" d="M19.906,18.4l.2-.34a.6.6,0,0,1,.824-.206l2.688,1.611a.6.6,0,0,1,.207.823l-.2.34a.6.6,0,0,1-.823.206L20.112,19.22a.6.6,0,0,1-.206-.823" fill="#646871"/>
    <path id="Path_1325" data-name="Path 1325" d="M10.524,9.9l-2.2,3.495a.4.4,0,0,1-.692-.027L5.7,9.714a.4.4,0,0,1,.369-.587l4.127.158a.4.4,0,0,1,.323.613" fill="#646871"/>
    <path id="Path_1326" data-name="Path 1326" d="M12.28,13.191l-.209.336a.6.6,0,0,1-.828.192l-2.66-1.657a.6.6,0,0,1-.191-.827L8.6,10.9a.6.6,0,0,1,.826-.192l2.66,1.657a.6.6,0,0,1,.193.827" fill="#646871"/>
    <path id="Path_1327" data-name="Path 1327" d="M27.147,28.091H18.825a.6.6,0,0,1-.519-.3l-4.16-7.208a.6.6,0,0,1,0-.6l4.16-7.206a.6.6,0,0,1,.519-.3h8.322a.6.6,0,0,1,.519.3l4.161,7.206a.6.6,0,0,1,0,.6l-4.161,7.208a.6.6,0,0,1-.519.3m-7.687-1.7h7.052l3.527-6.107-3.527-6.108H19.46l-3.526,6.108Z" fill="#646871"/>
  </g>
</svg>
