<svg xmlns="http://www.w3.org/2000/svg" xmlns:xlink="http://www.w3.org/1999/xlink" width="16" height="16" viewBox="0 0 16 16"><defs><clipPath id="a"><rect width="16" height="16" fill="none"/></clipPath></defs><g clip-path="url(#a)"><path d="M10.294,9.741l-.176-.269C8.9,7.615,7.38,5.306,6.93,3.445A1.33,1.33,0,0,1,7.015,2.3c.2-.256.554-.367,1.151-.367a4.207,4.207,0,0,1,.759.082,5.067,5.067,0,0,0-2.167-.667,1.863,1.863,0,0,0-.452.054,1.408,1.408,0,0,0-.956.676A3.709,3.709,0,0,0,5.5,4.853a28.238,28.238,0,0,0,2.821,5.159c.329.519.591.928.723,1.173.07.128.155.268.245.414.388.643.826,1.371.616,1.982a1.132,1.132,0,0,1-.725.667,3.243,3.243,0,0,1-1.151.186c-.148,0-.3-.006-.447-.02a4.823,4.823,0,0,0,3.077-.031,1.553,1.553,0,0,0,.941-1.875,8.332,8.332,0,0,0-1.306-2.766" fill="#eda52d" fill-rule="evenodd"/><path d="M8.474,11.49c-.121-.223-.377-.623-.7-1.132a28.6,28.6,0,0,1-2.887-5.3A7.5,7.5,0,0,1,4.548,3.6,5.779,5.779,0,0,0,8,14.011a2.022,2.022,0,0,0,1.014-.221.479.479,0,0,0,.276-.418,3.121,3.121,0,0,0-.566-1.449c-.091-.153-.177-.3-.252-.433" fill="#1189bd" fill-rule="evenodd"/><path d="M8,2.451a.575.575,0,0,0-.413.109c-.133.117-.114.4-.032.734.423,1.748,1.906,4,3.1,5.823l.178.269a11.239,11.239,0,0,1,1.357,2.8l.005.023A5.779,5.779,0,0,0,8,2.451" fill="#1189bd" fill-rule="evenodd"/></g></svg>