<svg xmlns="http://www.w3.org/2000/svg" xmlns:xlink="http://www.w3.org/1999/xlink" width="32" height="32" viewBox="0 0 32 32"><defs><clipPath id="a"><rect width="32" height="32" fill="none"/></clipPath></defs><g clip-path="url(#a)"><path d="M28.286,19.853v0l-.845-.443-8.7,4.557a5.652,5.652,0,0,1-2.658.643,6.513,6.513,0,0,1-2.827-.644L4.564,19.41l-.845.443s-2.284,1.2,0,2.394l10,5.241a5.29,5.29,0,0,0,4.567,0l10-5.241s2.284-1.2,0-2.394" fill="#646871"/><path d="M3.713,17.2l10,5.241a5.29,5.29,0,0,0,4.567,0l10-5.241s2.284-1.2,0-2.393h0l-.845-.443-8.695,4.558a5.666,5.666,0,0,1-2.658.643,6.508,6.508,0,0,1-2.826-.643l-8.7-4.558-.845.443S1.429,16,3.713,17.2" fill="#646871"/></g><g clip-path="url(#a)"><path d="M16.833,12.689,17.383,9a3.84,3.84,0,0,1-.481-.3l-6.691,1.4a.768.768,0,0,1-.017.248L15.773,12.9a1.938,1.938,0,0,1,1.06-.21" fill="#646871"/><path d="M3.714,12.154l10,5.238a5.278,5.278,0,0,0,4.568,0l10-5.238s2.284-1.2,0-2.394h0l-10-5.241a5.29,5.29,0,0,0-4.567,0l-10,5.241s-2.285,1.2,0,2.394M7.077,9.09a2.277,2.277,0,0,1,2.416.038,1.978,1.978,0,0,1,.293.219l6.522-1.285a.731.731,0,0,1,.3-.982A2.375,2.375,0,0,1,19,7.394c.731.535.847,1.263.261,1.626h-.007a1.744,1.744,0,0,1-1.066.185l-.546,3.66a2.277,2.277,0,0,1,.379.182c.783.473.962,1.225.408,1.677a2.273,2.273,0,0,1-2.416-.038,1.269,1.269,0,0,1-.723-1.1l-5.695-2.6a2.446,2.446,0,0,1-2.106-.216c-.783-.473-.963-1.224-.409-1.677" fill="#646871"/></g></svg>