<svg id="Rotate" xmlns="http://www.w3.org/2000/svg" xmlns:xlink="http://www.w3.org/1999/xlink" width="32" height="32" viewBox="0 0 32 32">
  <defs>
    <clipPath id="clip-path">
      <rect id="Rectangle_1161" data-name="Rectangle 1161" width="32" height="32" fill="none"/>
    </clipPath>
  </defs>
  <g id="Group_2142" data-name="Group 2142" clip-path="url(#clip-path)">
    <path id="Path_1291" data-name="Path 1291" d="M29.677,6.835,27.713,7.956a14.129,14.129,0,0,0-1.576-1.934,14.11,14.11,0,1,0-9.98,24.087l0,0a14.082,14.082,0,0,0,9.984-4.128,14.687,14.687,0,0,0,1.486-1.752.6.6,0,0,0-.166-.852l-.812-.534a.6.6,0,0,0-.815.159,12.2,12.2,0,0,1-1.231,1.445,11.944,11.944,0,1,1,0-16.888,12.152,12.152,0,0,1,1.221,1.477L23.961,10.1a.6.6,0,0,0-.005,1.039l5.683,3.319a.6.6,0,0,0,.9-.516l.033-6.582a.6.6,0,0,0-.9-.524" fill="#646871"/>
    <path id="Path_1292" data-name="Path 1292" d="M13.132,15.847a3,3,0,0,0,6,.01v-.005a3,3,0,0,0-6-.005" fill="#646871"/>
  </g>
</svg>
