<svg xmlns="http://www.w3.org/2000/svg" xmlns:xlink="http://www.w3.org/1999/xlink" width="32" height="32" viewBox="0 0 32 32"><defs><clipPath id="a"><rect width="32" height="32" fill="none"/></clipPath></defs><g clip-path="url(#a)"><path d="M8.926,19.222A8.733,8.733,0,0,1,2.64,16.948a1,1,0,0,1,1.41-1.419c1.4,1.393,4.46,2.4,8.835,1.053a9.31,9.31,0,0,0,2.352-1.267,12.76,12.76,0,0,1,7.923-2.538c4.788,0,6.311,2.635,6.374,2.747a1,1,0,1,1-1.747.974c-.034-.055-1.09-1.721-4.627-1.721a10.761,10.761,0,0,0-6.818,2.2,10.965,10.965,0,0,1-2.869,1.512,15.534,15.534,0,0,1-4.547.728" fill="#646871"/><path d="M8.925,13.719a8.725,8.725,0,0,1-6.284-2.274,1,1,0,1,1,1.408-1.419c1.4,1.393,4.46,2.4,8.835,1.053a9.3,9.3,0,0,0,2.353-1.267A12.758,12.758,0,0,1,23.16,7.274c4.787,0,6.31,2.635,6.373,2.747a1,1,0,1,1-1.747.974c-.034-.055-1.09-1.721-4.626-1.721a10.767,10.767,0,0,0-6.819,2.2,10.943,10.943,0,0,1-2.868,1.512,15.541,15.541,0,0,1-4.548.728" fill="#646871"/><path d="M8.925,24.725a8.725,8.725,0,0,1-6.284-2.274,1,1,0,1,1,1.408-1.419c1.4,1.393,4.46,2.4,8.835,1.053a9.3,9.3,0,0,0,2.353-1.267A12.758,12.758,0,0,1,23.16,18.28c4.787,0,6.31,2.635,6.373,2.747A1,1,0,1,1,27.786,22c-.034-.055-1.09-1.721-4.626-1.721a10.766,10.766,0,0,0-6.819,2.2A10.943,10.943,0,0,1,13.473,24a15.541,15.541,0,0,1-4.548.728" fill="#646871"/></g></svg>