<?xml version="1.0" encoding="utf-8"?>
<!-- Generator: Adobe Illustrator 27.9.0, SVG Export Plug-In . SVG Version: 6.00 Build 0)  -->
<svg version="1.1" id="gridSliderBackground" xmlns="http://www.w3.org/2000/svg" xmlns:xlink="http://www.w3.org/1999/xlink"
	 x="0px" y="0px" viewBox="0 0 24 30" style="enable-background:new 0 0 24 30;" xml:space="preserve">
<style type="text/css">
	.st0{fill:#C1C1C1;}
</style>
<path class="st0" d="M23.5,15.7c-0.3,0-0.5-0.2-0.5-0.5V12c0-0.3,0.2-0.5,0.5-0.5S24,11.7,24,12v3.3C24,15.5,23.8,15.7,23.5,15.7z"
	/>
<path class="st0" d="M9.5,15.7c-0.3,0-0.5-0.2-0.5-0.5V12c0-0.3,0.2-0.5,0.5-0.5S10,11.7,10,12v3.3C10,15.5,9.7,15.7,9.5,15.7z"/>
<path class="st0" d="M14.1,15.7c-0.3,0-0.5-0.2-0.5-0.5V12c0-0.3,0.2-0.5,0.5-0.5s0.5,0.2,0.5,0.5v3.3
	C14.6,15.5,14.4,15.7,14.1,15.7z"/>
<path class="st0" d="M18.8,15.7c-0.3,0-0.5-0.2-0.5-0.5V12c0-0.3,0.2-0.5,0.5-0.5s0.5,0.2,0.5,0.5v3.3
	C19.3,15.5,19.1,15.7,18.8,15.7z"/>
<path class="st0" d="M4.8,19.6c-0.3,0-0.5-0.2-0.5-0.5V12c0-0.3,0.2-0.5,0.5-0.5s0.5,0.2,0.5,0.5v7.1C5.3,19.4,5.1,19.6,4.8,19.6z"
	/>
</svg>
