<svg xmlns="http://www.w3.org/2000/svg" xmlns:xlink="http://www.w3.org/1999/xlink" width="16" height="16" viewBox="0 0 16 16"><defs><clipPath id="a"><rect width="16" height="16" fill="none"/></clipPath></defs><g clip-path="url(#a)"><path d="M8,14.647A6.647,6.647,0,1,1,14.646,8,6.655,6.655,0,0,1,8,14.647M8,2.853A5.147,5.147,0,1,0,13.146,8,5.153,5.153,0,0,0,8,2.853" fill="#646871"/><path d="M7.792,10.123a.762.762,0,0,0,0,1.524.762.762,0,0,0,0-1.524" fill="#646871"/><path d="M7.921,4.353c-1.336,0-1.95.792-1.95,1.326a.568.568,0,0,0,.594.564c.535,0,.317-.762,1.326-.762.495,0,.891.218.891.673,0,.535-.554.842-.881,1.119a1.81,1.81,0,0,0-.663,1.5c0,.515.139.663.544.663.485,0,.584-.218.584-.406A1.243,1.243,0,0,1,8.921,7.8a2.534,2.534,0,0,0,1.108-1.811c0-.93-.841-1.633-2.108-1.633" fill="#646871"/></g></svg>