<svg xmlns="http://www.w3.org/2000/svg" xmlns:xlink="http://www.w3.org/1999/xlink" width="32" height="32" viewBox="0 0 32 32"><defs><clipPath id="a"><rect width="32" height="32" fill="none"/></clipPath></defs><g clip-path="url(#a)"><path d="M14.56,15.051a.939.939,0,0,1-.663-.274L7.932,8.811,2.886,13.857A.937.937,0,0,1,1.56,12.532L7.269,6.823a.938.938,0,0,1,1.326,0l6.628,6.628a.937.937,0,0,1-.663,1.6" transform="translate(1.047 1.23)" fill="#646871"/><path d="M10.02,19.383a.937.937,0,0,1-.663-1.6l5.71-5.709a.938.938,0,0,1,1.325,0L19.9,15.586a.938.938,0,0,1-1.326,1.325l-2.849-2.85-5.046,5.046a.939.939,0,0,1-.663.274" transform="translate(1.318 1.413)" fill="#646871"/><path d="M22.015,24.432a.937.937,0,0,1-.663-1.6l2.417-2.417a.937.937,0,1,1,1.325,1.325l-2.416,2.417a.939.939,0,0,1-.663.274" transform="translate(1.734 1.702)" fill="#646871"/><path d="M22.1,24.432a.934.934,0,0,1-.663-.274l-2.417-2.417a.938.938,0,0,1,1.326-1.325l2.417,2.416a.937.937,0,0,1-.663,1.6" transform="translate(1.653 1.702)" fill="#646871"/><path d="M24.432,8.991a.934.934,0,0,1-.663-.274L21.352,6.3a.937.937,0,0,1,1.325-1.325l2.417,2.417a.937.937,0,0,1-.663,1.6" transform="translate(1.734 1.166)" fill="#646871"/><path d="M19.679,8.991a.937.937,0,0,1-.663-1.6l2.417-2.416A.938.938,0,0,1,22.76,6.3L20.343,8.717a.939.939,0,0,1-.663.274" transform="translate(1.653 1.166)" fill="#646871"/><path d="M21.946,24.456a.938.938,0,0,1-.937-.937V6.8a.937.937,0,0,1,1.875,0V23.518a.938.938,0,0,1-.937.937" transform="translate(1.732 1.207)" fill="#646871"/><path d="M27.663,27.312H2.744a.937.937,0,0,1,0-1.875H27.663a.937.937,0,0,1,0,1.875" transform="translate(1.066 1.887)" fill="#646871"/><path d="M25.687,3.614H18.581a.937.937,0,0,1,0-1.875h7.105a.937.937,0,0,1,0,1.875" transform="translate(1.615 1.063)" fill="#646871"/></g></svg>