<svg id="Home" xmlns="http://www.w3.org/2000/svg" xmlns:xlink="http://www.w3.org/1999/xlink" width="32" height="32" viewBox="0 0 32 32">
  <defs>
    <clipPath id="clip-path">
      <rect id="Rectangle_1160" data-name="Rectangle 1160" width="32" height="32" fill="none"/>
    </clipPath>
  </defs>
  <g id="Group_2140" data-name="Group 2140" clip-path="url(#clip-path)">
    <path id="Path_1290" data-name="Path 1290" d="M15.644,8.592,7.065,15.658V28.231a.744.744,0,0,0,.745.745l5.214-.013a.745.745,0,0,0,.741-.745V23.687a.745.745,0,0,1,.744-.745h2.978a.746.746,0,0,1,.745.745v4.531a.744.744,0,0,0,.742.747h0l5.213.014a.744.744,0,0,0,.745-.744V15.653L16.356,8.592a.566.566,0,0,0-.712,0M29.2,13.229l-11.779-9.7a2.233,2.233,0,0,0-2.839,0L2.8,13.23a.558.558,0,0,0-.075.786l1.187,1.44a.558.558,0,0,0,.786.076L15.644,6.519a.569.569,0,0,1,.712,0L27.3,15.534a.56.56,0,0,0,.787-.074l1.187-1.443a.559.559,0,0,0-.078-.786h0Z" fill="#646871"/>
  </g>
</svg>
