<svg xmlns="http://www.w3.org/2000/svg" xmlns:xlink="http://www.w3.org/1999/xlink" width="32" height="32" viewBox="0 0 32 32"><defs><clipPath id="a"><rect width="32" height="32" fill="none"/></clipPath></defs><g clip-path="url(#a)"><path d="M8.758,5.937,1.1,11.81a1.5,1.5,0,0,0-.347,2l5.243,8.114a1.5,1.5,0,0,0,1,.663l20.514,3.618a1.56,1.56,0,0,0,1.807-1.268l2.417-13.887a1.558,1.558,0,0,0-1.265-1.8L9.978,5.639a1.559,1.559,0,0,0-1.22.3M6.722,13.821A1.531,1.531,0,1,1,5.477,12.05a1.53,1.53,0,0,1,1.245,1.771M27.66,24.647l-.136-.024c-.527-1.235-2.418-5.664-2.61-6.115-.724-1.7-1.544-3.624-2.833-3.854l-.355-.063C20.435,14.36,19,15.885,17.7,17.263l-.2.214c-.468-.96-1.015-1.769-1.778-1.9l-.276-.05c-1.074-.191-2.216,1.02-3.251,2.118-.652.692-2.649,2.805-3.465,3.669l-.812-.143L10.361,7.308,30.1,10.789Z" fill="#646871"/><path d="M14.255,9.678a2.354,2.354,0,1,0,1.9,2.731,2.354,2.354,0,0,0-1.9-2.731" fill="#646871"/></g></svg>