<svg xmlns="http://www.w3.org/2000/svg" xmlns:xlink="http://www.w3.org/1999/xlink" width="32" height="32" viewBox="0 0 32 32"><defs><clipPath id="a"><rect width="32" height="32" fill="none"/></clipPath></defs><g clip-path="url(#a)"><g transform="translate(0.828 2)"><path d="M31.156,20.1l-.965-.505-9.923,5.2a6.461,6.461,0,0,1-3.029.733,7.427,7.427,0,0,1-3.225-.733l-9.924-5.2-.964.505s-2.6,1.365,0,2.731l11.409,5.978a6.039,6.039,0,0,0,5.212,0L31.156,22.83s2.605-1.366,0-2.731" transform="translate(-1.97 -2.016)" fill="#646871"/><path d="M31.156,14.776l-.965-.505-9.923,5.2a6.475,6.475,0,0,1-3.029.734,7.443,7.443,0,0,1-3.225-.734l-9.924-5.2-.964.505s-2.6,1.365,0,2.731l11.409,5.977a6.039,6.039,0,0,0,5.212,0l11.408-5.977s2.605-1.366,0-2.731" transform="translate(-1.97 -2.449)" fill="#646871"/><path d="M17.142,5.13a4.266,4.266,0,0,1,1.8.4L29.9,11.273l-10.957,5.74a4.24,4.24,0,0,1-3.61,0L4.38,11.273l10.957-5.74a4.266,4.266,0,0,1,1.8-.4m0-1.791a6.041,6.041,0,0,0-2.605.592L3.128,9.908s-2.605,1.365,0,2.731l11.409,5.977a6.032,6.032,0,0,0,5.21,0l11.409-5.977s2.606-1.366,0-2.731L19.747,3.931a6.041,6.041,0,0,0-2.605-.592" transform="translate(-1.97 -3.339)" fill="#646871"/></g></g></svg>