<svg id="Merge" xmlns="http://www.w3.org/2000/svg" xmlns:xlink="http://www.w3.org/1999/xlink" width="32" height="32" viewBox="0 0 32 32">
  <defs>
    <clipPath id="clip-path">
      <rect id="Rectangle_1168" data-name="Rectangle 1168" width="32" height="32" fill="none"/>
    </clipPath>
  </defs>
  <g id="Group_2156" data-name="Group 2156" clip-path="url(#clip-path)">
    <path id="Path_1301" data-name="Path 1301" d="M13.174,19.522H4.852a.6.6,0,0,1-.519-.3L.173,12.015a.6.6,0,0,1,0-.6l4.16-7.206a.6.6,0,0,1,.519-.3h8.322a.6.6,0,0,1,.519.3l4.161,7.206a.6.6,0,0,1,0,.6l-4.161,7.207a.6.6,0,0,1-.519.3m-7.687-1.7h7.052l3.527-6.108L12.539,5.608H5.487L1.961,11.715Z" fill="#646871"/>
    <path id="Path_1302" data-name="Path 1302" d="M7.514,12.967l2.14-3.533a.4.4,0,0,1,.693.015l1.989,3.619a.4.4,0,0,1-.359.592l-4.129-.086a.4.4,0,0,1-.334-.607" fill="#646871"/>
    <path id="Path_1303" data-name="Path 1303" d="M5.7,9.7l.2-.34a.6.6,0,0,1,.823-.206L9.416,10.77a.6.6,0,0,1,.207.823l-.2.34a.6.6,0,0,1-.823.206L5.907,10.528A.6.6,0,0,1,5.7,9.7" fill="#646871"/>
    <path id="Path_1304" data-name="Path 1304" d="M24.7,18.809l-2.2,3.5a.4.4,0,0,1-.692-.027l-1.926-3.652a.4.4,0,0,1,.369-.587l4.127.158a.4.4,0,0,1,.323.613" fill="#646871"/>
    <path id="Path_1305" data-name="Path 1305" d="M26.459,22.1l-.209.336a.6.6,0,0,1-.827.192l-2.66-1.657a.6.6,0,0,1-.192-.827l.209-.336a.6.6,0,0,1,.826-.192l2.661,1.657a.6.6,0,0,1,.192.827" fill="#646871"/>
    <path id="Path_1306" data-name="Path 1306" d="M27.147,28.091H18.825a.6.6,0,0,1-.519-.3l-4.16-7.208a.6.6,0,0,1,0-.6l4.16-7.206a.6.6,0,0,1,.519-.3h8.322a.6.6,0,0,1,.519.3l4.161,7.206a.6.6,0,0,1,0,.6l-4.161,7.208a.6.6,0,0,1-.519.3m-7.687-1.7h7.052l3.527-6.107-3.527-6.108H19.46l-3.526,6.108Z" fill="#646871"/>
  </g>
</svg>
