<?xml version="1.0" encoding="utf-8"?>
<!-- Generator: Adobe Illustrator 27.9.0, SVG Export Plug-In . SVG Version: 6.00 Build 0)  -->
<svg version="1.1" id="Layer_1" xmlns="http://www.w3.org/2000/svg" xmlns:xlink="http://www.w3.org/1999/xlink" x="0px" y="0px"
	 viewBox="0 0 32 32" style="enable-background:new 0 0 32 32;" xml:space="preserve">
<style type="text/css">
	.st0{clip-path:url(#SVGID_00000103257858546398689030000016412351434938988180_);}
	.st1{fill:#646871;}
</style>
<g>
	<defs>
		<rect id="SVGID_1_" y="0" width="32" height="32"/>
	</defs>
	<clipPath id="SVGID_00000177475029292230145050000001940350794989778340_">
		<use xlink:href="#SVGID_1_"  style="overflow:visible;"/>
	</clipPath>
	<g style="clip-path:url(#SVGID_00000177475029292230145050000001940350794989778340_);">
		<path class="st1" d="M21.7,7.8c0-0.6-0.4-1-1-1H9.1c-0.6,0-1,0.4-1,1s0.4,1,1,1h11.6C21.3,8.8,21.7,8.4,21.7,7.8"/>
		<path class="st1" d="M18.7,12.4c0-0.6-0.4-1-1-1H9.1c-0.6,0-1,0.4-1,1s0.4,1,1,1h8.6C18.2,13.4,18.7,13,18.7,12.4"/>
		<path class="st1" d="M9.1,16c-0.6,0-1,0.4-1,1s0.4,1,1,1h7.4c0.6,0,1-0.4,1-1s-0.4-1-1-1H9.1z"/>
		<path class="st1" d="M25.9,11.3V4.4c0-1.3-1.1-2.4-2.4-2.4H6.5C5.2,2,4.1,3.1,4.1,4.4v23.1c0,1.4,1.1,2.4,2.4,2.4h16.9
			c0.6,0,1-0.4,1-1s-0.4-1-1-1H6.5c-0.2,0-0.4-0.2-0.4-0.4V4.4C6.1,4.2,6.3,4,6.5,4c0,0,0,0,0,0h16.9c0.2,0,0.4,0.2,0.4,0.4
			c0,0,0,0,0,0v6.9c-2.4,0.5-3.8,2.9-3.3,5.3c0.2,0.9,0.7,1.7,1.4,2.3v6.3c0,0.4,0.3,0.7,0.7,0.7c0.2,0,0.4-0.1,0.5-0.2l1.7-1.7
			l1.7,1.7c0.1,0.1,0.3,0.2,0.5,0.2c0.1,0,0.2,0,0.3-0.1c0.3-0.1,0.5-0.4,0.5-0.7v-6.3c1.8-1.6,2-4.4,0.4-6.2
			C27.6,12,26.8,11.5,25.9,11.3 M26.3,23.3l-0.9-1c-0.3-0.3-0.8-0.3-1,0l0,0l-0.9,1v-3.6c0.9,0.3,2,0.3,2.9,0L26.3,23.3z M24.9,18.3
			c-1.5,0-2.7-1.2-2.7-2.7s1.2-2.7,2.7-2.7c1.5,0,2.7,1.2,2.7,2.7C27.6,17.1,26.4,18.3,24.9,18.3C24.9,18.3,24.9,18.3,24.9,18.3"/>
	</g>
</g>
</svg>
