<svg xmlns="http://www.w3.org/2000/svg" xmlns:xlink="http://www.w3.org/1999/xlink" width="32" height="32" viewBox="0 0 32 32"><defs><clipPath id="a"><rect width="32" height="32" fill="none"/></clipPath></defs><g clip-path="url(#a)"><path d="M18.183,6.573l-3.839,3.839a.327.327,0,0,0,.235.561,6.357,6.357,0,0,1,2.207.355.324.324,0,0,0,.338-.074l2.788-2.788A2.637,2.637,0,0,1,23.1,7.981a2.566,2.566,0,0,1,.518,4.025c-.17.171-4.7,4.7-4.442,4.442a2.589,2.589,0,0,1-3.654-.032,1.246,1.246,0,0,0-1.769.022l-.788.788a5.057,5.057,0,0,0,7.994,1.055c.009-.008.019-.014.028-.021L25.3,13.946a5.239,5.239,0,0,0,.808-6.54,5.128,5.128,0,0,0-7.924-.833" fill="#646871"/><path d="M15.03,20.592l-2.943,2.943A2.637,2.637,0,0,1,8.9,24.02,2.566,2.566,0,0,1,8.383,20l4.452-4.452a2.588,2.588,0,0,1,3.654.032,1.247,1.247,0,0,0,1.769-.022l.788-.788a5.071,5.071,0,0,0-.778-1.033,5.156,5.156,0,0,0-7.216-.023c-.009.009-.019.014-.028.023L6.7,18.055a5.239,5.239,0,0,0-.808,6.54,5.129,5.129,0,0,0,7.924.833l3.855-3.855a.324.324,0,0,0-.232-.555A6.352,6.352,0,0,1,15.03,20.592Z" fill="#646871"/></g></svg>