<svg xmlns="http://www.w3.org/2000/svg" xmlns:xlink="http://www.w3.org/1999/xlink" width="32" height="32" viewBox="0 0 32 32"><defs><clipPath id="a"><rect width="32" height="32" fill="none"/></clipPath></defs><g clip-path="url(#a)"><path d="M16.01,5.895H16A5.443,5.443,0,0,0,16,16.78h.011a5.443,5.443,0,0,0,0-10.885m0,8.885H16a3.443,3.443,0,0,1,0-6.885h0a3.443,3.443,0,0,1,0,6.885" fill="#646871"/><path d="M16,2a9.246,9.246,0,0,0-9.236,9.236c0,7.026,6.12,15.666,7.995,18.147a1.544,1.544,0,0,0,1.026.6A1.467,1.467,0,0,0,16,30a1.527,1.527,0,0,0,.927-.311,1.554,1.554,0,0,0,.31-.307c1.876-2.485,8-11.135,8-18.146A9.246,9.246,0,0,0,16,2m0,25.7c-1.8-2.458-7.236-10.375-7.236-16.464a7.236,7.236,0,1,1,14.472,0c0,6.015-5.148,13.627-7.236,16.464" fill="#646871"/></g></svg>