<?xml version="1.0" encoding="utf-8"?>
<!-- Generator: Adobe Illustrator 27.9.0, SVG Export Plug-In . SVG Version: 6.00 Build 0)  -->
<svg version="1.1" id="Layer_1" xmlns="http://www.w3.org/2000/svg" xmlns:xlink="http://www.w3.org/1999/xlink" x="0px" y="0px"
	 viewBox="0 0 32 32" style="enable-background:new 0 0 32 32;" xml:space="preserve">
<style type="text/css">
	.st0{clip-path:url(#SVGID_00000065048013825149043570000009966115733387177618_);}
	.st1{fill:#646871;}
</style>
<g>
	<g>
		<defs>
			<rect id="SVGID_1_" y="0" width="32" height="32"/>
		</defs>
		<clipPath id="SVGID_00000116922946903949605980000017737449474976448433_">
			<use xlink:href="#SVGID_1_"  style="overflow:visible;"/>
		</clipPath>
		<g id="Group_2444" style="clip-path:url(#SVGID_00000116922946903949605980000017737449474976448433_);">
			<path id="Path_1906" class="st1" d="M16,26.9L16,26.9L16,26.9L16,26.9z"/>
			<path id="Path_1907" class="st1" d="M19.5,17.3h-7c-2.3,0.2-4.3,1.8-5,4.1c1.8,2.9,5,4.7,8.5,4.7h0.1c3.4,0,6.6-1.8,8.5-4.7
				C23.9,19.1,21.9,17.5,19.5,17.3"/>
			<path id="Path_1908" class="st1" d="M16,6.4c2.8,0,5,2.2,5,5s-2.2,5-5,5s-5-2.2-5-5S13.2,6.4,16,6.4L16,6.4"/>
			<path id="Path_1909" class="st1" d="M16,2.4C8.5,2.4,2.4,8.5,2.4,16c0,7.5,6.1,13.6,13.6,13.6c7.5,0,13.6-6.1,13.6-13.6
				C29.6,8.5,23.5,2.4,16,2.4 M16,28C9.4,28,4,22.6,4,16S9.4,4,16,4s12,5.4,12,12C28,22.6,22.6,28,16,28C16,28,16,28,16,28"/>
		</g>
	</g>
</g>
</svg>
