<svg xmlns="http://www.w3.org/2000/svg" xmlns:xlink="http://www.w3.org/1999/xlink" width="24" height="24" viewBox="0 0 24 24"><defs><clipPath id="a"><rect width="24" height="24" fill="none"/></clipPath></defs><g clip-path="url(#a)"><path d="M20.6,8.13a2.015,2.015,0,0,0-2.8-.454A1.985,1.985,0,0,0,17.085,9.9L7.149,17.454a1.991,1.991,0,0,0-2.873,2.719,2.015,2.015,0,0,0,2.808.454A1.987,1.987,0,0,0,7.853,18.6l10.034-7.628A1.991,1.991,0,0,0,20.6,8.13" fill="#646871"/><path d="M6.734,9.174,5.232,7.2A1.4,1.4,0,0,1,7.407,5.449l.012.015.034.045,1.5,1.972,1.521-1.162-1.5-1.97A3.313,3.313,0,1,0,3.651,8.291c.017.025.037.049.054.073l1.5,1.973Z" fill="#646871"/><rect width="1.917" height="2.722" transform="translate(9.224 7.835) rotate(-37.306)" fill="#646871"/><rect width="1.917" height="2.721" transform="translate(5.479 10.691) rotate(-37.306)" fill="#646871"/></g></svg>