<svg id="Intersect" xmlns="http://www.w3.org/2000/svg" xmlns:xlink="http://www.w3.org/1999/xlink" width="32" height="32" viewBox="0 0 32 32">
  <defs>
    <clipPath id="clip-path">
      <rect id="Rectangle_1167" data-name="Rectangle 1167" width="32" height="32" fill="none"/>
    </clipPath>
  </defs>
  <g id="Group_2154" data-name="Group 2154" clip-path="url(#clip-path)">
    <path id="Path_1300" data-name="Path 1300" d="M26.13,28.3H15.776a.6.6,0,0,1-.519-.3l-2.8-4.856a.6.6,0,0,0-.519-.3H5.87a.6.6,0,0,1-.52-.3L.173,13.572a.6.6,0,0,1,0-.6L5.35,4.005a.6.6,0,0,1,.52-.3H16.224a.6.6,0,0,1,.519.3l2.8,4.856a.6.6,0,0,0,.519.3H26.13a.6.6,0,0,1,.52.3l5.177,8.967a.6.6,0,0,1,0,.6L26.65,28a.6.6,0,0,1-.52.3M16.57,26.32h8.766l4.383-7.592-4.383-7.591H18.58L15.43,5.681H6.663L2.281,13.272l4.382,7.592H13.42Z" fill="#646871"/>
  </g>
</svg>
