<svg xmlns="http://www.w3.org/2000/svg" width="26.905" height="28.706" viewBox="0 0 26.905 28.706"><path d="M1.625,29.833H9.316V8.682H1.625Zm3.285-1.82H2.987V26.09H4.91Zm0-3.215H2.987V22.875H4.91Zm0-3.215H2.987V19.66H4.91Zm0-3.214H2.987V16.446H4.91Zm0-3.215H2.987V13.231H4.91Zm0-3.215H2.987V10.016H4.91ZM7.954,28.013H6.031V26.09H7.954Zm0-3.215H6.031V22.875H7.954Zm0-3.215H6.031V19.66H7.954Zm0-3.214H6.031V16.446H7.954Zm0-3.215H6.031V13.231H7.954Zm0-3.215H6.031V10.016H7.954Z" transform="translate(-1.625 -1.127)" fill="#646871"/><path d="M22.375,7.726V30.621h7.979V11.671Zm3.408,21.007H23.788V26.738h1.995Zm0-3.335H23.788V23.4h1.995Zm0-3.335H23.788V20.068h1.995Zm0-3.334H23.788V16.734h1.995Zm0-3.335H23.788V13.4h1.995ZM28.94,28.733H26.946V26.738H28.94Zm0-3.335H26.946V23.4H28.94Zm0-3.335H26.946V20.068H28.94Zm0-3.334H26.946V16.734H28.94Zm0-3.335H26.946V13.4H28.94Z" transform="translate(-3.448 -1.915)" fill="#646871"/><path d="M18.435,3.436V1.625H13.3V3.436H11.9V30.33h7.9V3.436ZM15.272,28.46H13.3V26.484h1.976Zm0-3.293H13.3V23.192h1.976Zm0-3.292H13.3V19.9h1.976Zm0-3.293H13.3V16.607h1.976Zm0-3.293H13.3V13.315h1.976Zm0-3.292H13.3V10.023h1.976Zm0-3.293H13.3V6.73h1.976ZM18.4,28.46H16.424V26.484H18.4Zm0-3.293H16.424V23.192H18.4Zm0-3.292H16.424V19.9H18.4Zm0-3.293H16.424V16.607H18.4Zm0-3.293H16.424V13.315H18.4ZM18.4,12H16.424V10.023H18.4Zm0-3.293H16.424V6.73H18.4Z" transform="translate(-2.539 -1.625)" fill="#646871"/></svg>