<svg id="Close" xmlns="http://www.w3.org/2000/svg" xmlns:xlink="http://www.w3.org/1999/xlink" width="32" height="32" viewBox="0 0 32 32">
  <defs>
    <clipPath id="clip-path">
      <rect id="Rectangle_1131" data-name="Rectangle 1131" width="32" height="32" fill="none"/>
    </clipPath>
  </defs>
  <g id="Group_2112" data-name="Group 2112" clip-path="url(#clip-path)">
    <path id="Path_1242" data-name="Path 1242" d="M16,4A12,12,0,1,0,28,16,12,12,0,0,0,16,4m7.244,8.444-8.806,8.807a1.19,1.19,0,0,1-1.682,0l-4-4a.6.6,0,0,1,0-.848l1.263-1.264a.6.6,0,0,1,.849,0l2.73,2.73,7.536-7.535a.6.6,0,0,1,.848,0L23.244,11.6a.6.6,0,0,1,0,.848" fill="#646871"/>
  </g>
</svg>
