<svg xmlns="http://www.w3.org/2000/svg" xmlns:xlink="http://www.w3.org/1999/xlink" width="32" height="32" viewBox="0 0 32 32"><defs><clipPath id="a"><rect width="32" height="32" fill="none"/></clipPath></defs><g clip-path="url(#a)"><path d="M25.091,27.147H7.039a2.867,2.867,0,0,1-2.745-2.97V10.8A2.729,2.729,0,0,1,6.909,7.971h3.855a1,1,0,1,1,0,2H6.909c-.333,0-.615.377-.615.824V24.177a.892.892,0,0,0,.745.97H25.091c.333,0,.615-.377.615-.823v-11a1,1,0,0,1,2,0v11A2.728,2.728,0,0,1,25.091,27.147Z" fill="#646871"/><path d="M14.5,21.853a1,1,0,0,1-1-1V11a3.032,3.032,0,0,1,3.029-3.029h7.853a1,1,0,1,1,0,2H16.529A1.03,1.03,0,0,0,15.5,11v9.853A1,1,0,0,1,14.5,21.853Z" fill="#646871"/><path d="M22.677,13.677a1,1,0,0,1-.707-1.707l2.7-2.7-2.7-2.7a1,1,0,0,1,1.414-1.414L26.8,8.558a1,1,0,0,1,0,1.414l-3.412,3.412A1,1,0,0,1,22.677,13.677Z" fill="#646871"/></g></svg>