<svg xmlns="http://www.w3.org/2000/svg" xmlns:xlink="http://www.w3.org/1999/xlink" width="32" height="32" viewBox="0 0 32 32"><defs><clipPath id="a"><rect width="32" height="32" fill="none"/></clipPath></defs><g clip-path="url(#a)"><path d="M29,26.852,26.5,24.14a6.829,6.829,0,1,0-2.365,2.177l2.5,2.712a.936.936,0,0,0,1.319.055l.992-.912A.937.937,0,0,0,29,26.852m-4.632-2.66a5.224,5.224,0,1,1,.307-7.381,5.23,5.23,0,0,1-.307,7.381" fill="#646871"/><path d="M-78.2-1112.309a1.419,1.419,0,0,1-.716-.816,1.283,1.283,0,0,1-.08-.46A1.417,1.417,0,0,1-77.585-1115a1.256,1.256,0,0,1,.414.065h.005a1.422,1.422,0,0,1,1,1.32v.031a1.4,1.4,0,0,1-.345.925,1.416,1.416,0,0,1-1.07.49A1.439,1.439,0,0,1-78.2-1112.309Z" transform="translate(91.17 1121.126)" fill="#646871" stroke="rgba(0,0,0,0)" stroke-miterlimit="10" stroke-width="1"/><path d="M13,23.79H6a1,1,0,0,1-1-1V16.461l4.65-3.9a.615.615,0,0,1,.75-.01l2.95,2.21a1.066,1.066,0,0,0,1.4-.1L20.5,8.92a.54.54,0,0,1,.45-.18.546.546,0,0,1,.4.16l5.75,7.31a.942.942,0,0,0,.27.35.985.985,0,0,0,.63.22,1,1,0,0,0,1-1V6a3.009,3.009,0,0,0-3-3H6A3.009,3.009,0,0,0,3,6V22.79a3.009,3.009,0,0,0,3,3h7a1,1,0,1,0,0-2M6,5H26a1,1,0,0,1,1,1v6.84L22.88,7.61a2.623,2.623,0,0,0-3.8-.11l-4.51,4.52a1.081,1.081,0,0,1-1.41.1L11.6,10.95A2.612,2.612,0,0,0,8.4,11L5,13.875V6A1,1,0,0,1,6,5" fill="#646871"/></g></svg>