<svg xmlns="http://www.w3.org/2000/svg" xmlns:xlink="http://www.w3.org/1999/xlink" width="32" height="32" viewBox="0 0 32 32"><defs><clipPath id="a"><rect width="32" height="32" fill="none"/></clipPath></defs><g clip-path="url(#a)"><path d="M18.957,14.677H20.7a.435.435,0,0,0,.435-.434V12.5a.434.434,0,0,0-.435-.433H18.957a.434.434,0,0,0-.434.433v1.746a.435.435,0,0,0,.434.434" fill="#646871"/><path d="M18.957,18.593H20.7a.435.435,0,0,0,.435-.435V16.413a.435.435,0,0,0-.435-.434H18.957a.435.435,0,0,0-.434.434v1.745a.435.435,0,0,0,.434.435" fill="#646871"/><path d="M10.8,22.506h1.745a.435.435,0,0,0,.435-.434V20.326a.434.434,0,0,0-.435-.433H10.8a.434.434,0,0,0-.434.433v1.746a.435.435,0,0,0,.434.434" fill="#646871"/><path d="M14.88,22.506h1.745a.435.435,0,0,0,.435-.434V20.326a.434.434,0,0,0-.435-.433H14.88a.434.434,0,0,0-.434.433v1.746a.435.435,0,0,0,.434.434" fill="#646871"/><path d="M18.957,22.506H20.7a.435.435,0,0,0,.435-.434V20.326a.434.434,0,0,0-.435-.433H18.957a.434.434,0,0,0-.434.433v1.746a.435.435,0,0,0,.434.434" fill="#646871"/><path d="M8.892,26.246l.41.015c.136,0,14.282-.052,14.46-.068a7.1,7.1,0,0,0,6.179-7.059,7.211,7.211,0,0,0-4.725-6.706,6.092,6.092,0,0,0-1.7-3.357,5.99,5.99,0,0,0-5.444-1.642,7.052,7.052,0,0,0-4.6-1.69A7.131,7.131,0,0,0,6.351,12.6a7.187,7.187,0,0,0-4.293,6.529,7.1,7.1,0,0,0,6.834,7.112m-1.232-12,.766-.238-.066-.8c-.01-.115-.013-.233-.013-.351a5.128,5.128,0,0,1,5.122-5.122,5.075,5.075,0,0,1,3.613,1.5l.425.426.575-.177a4.013,4.013,0,0,1,4.015,1,4.116,4.116,0,0,1,1.192,2.747l.03.75.729.18a5.179,5.179,0,0,1,3.893,4.974A5.1,5.1,0,0,1,23.566,24.2c-.961.008-14.153.059-14.234.059l-.361-.013a5.109,5.109,0,0,1-4.913-5.114,5.161,5.161,0,0,1,3.6-4.885" fill="#646871"/><path d="M10.8,14.677h1.745a.435.435,0,0,0,.435-.434V12.5a.434.434,0,0,0-.435-.433H10.8a.434.434,0,0,0-.434.433v1.746a.435.435,0,0,0,.434.434" fill="#646871"/><path d="M14.88,14.677h1.745a.435.435,0,0,0,.435-.434V12.5a.434.434,0,0,0-.435-.433H14.88a.434.434,0,0,0-.434.433v1.746a.435.435,0,0,0,.434.434" fill="#646871"/><path d="M10.8,18.593h1.745a.435.435,0,0,0,.435-.435V16.413a.435.435,0,0,0-.435-.434H10.8a.435.435,0,0,0-.434.434v1.745a.435.435,0,0,0,.434.435" fill="#646871"/><path d="M14.88,18.593h1.745a.435.435,0,0,0,.435-.435V16.413a.435.435,0,0,0-.435-.434H14.88a.435.435,0,0,0-.434.434v1.745a.435.435,0,0,0,.434.435" fill="#646871"/></g></svg>