<svg xmlns="http://www.w3.org/2000/svg" xmlns:xlink="http://www.w3.org/1999/xlink" width="32" height="32" viewBox="0 0 32 32"><defs><clipPath id="a"><rect width="32" height="32" fill="none"/></clipPath></defs><g clip-path="url(#a)"><path d="M3.4,22.1l.011.01a13.919,13.919,0,0,0,3.179,4.25,1.019,1.019,0,0,0,.67.26A1,1,0,0,0,8,26.29a.988.988,0,0,0,.259-.67.954.954,0,0,0-.32-.73c0-.01,0-.01-.01-.01A12.094,12.094,0,0,1,5.21,21.24c-.01-.02-.01-.03-.021-.04v-.01a1.02,1.02,0,0,0-1.33-.45.981.981,0,0,0-.569.9.894.894,0,0,0,.1.42v.01c0,.01.01.02.01.03" fill="#646871"/><path d="M11.16,29.13a14.008,14.008,0,0,0,4.84.859h.45a.99.99,0,0,0,.96-1.009v-.031a.98.98,0,0,0-.99-.96h-.04a12.067,12.067,0,0,1-4.521-.729,1.024,1.024,0,0,0-1.29.59,1.04,1.04,0,0,0-.059.34,1,1,0,0,0,.65.94" fill="#646871"/><path d="M27.319,10.63a1.048,1.048,0,0,0,.49-.13.993.993,0,0,0,.51-.87.927.927,0,0,0-.119-.49,14.046,14.046,0,0,0-3.431-4.05c-.01-.01-.029-.021-.04-.03h-.01a1.018,1.018,0,0,0-1.4.16.969.969,0,0,0-.22.61,1,1,0,0,0,.38.789,12.08,12.08,0,0,1,2.971,3.5,1.011,1.011,0,0,0,.869.511" fill="#646871"/><path d="M21.26,28.88a.909.909,0,0,0,.4-.08,13.954,13.954,0,0,0,4.39-3.061,1.007,1.007,0,0,0,.28-.689,1,1,0,0,0-.3-.731,1.038,1.038,0,0,0-1.421.021,11.868,11.868,0,0,1-3.76,2.63,1,1,0,0,0-.59.91,1.155,1.155,0,0,0,.08.41,1,1,0,0,0,.92.59" fill="#646871"/><path d="M29.84,14.22h.04v-.01a1.008,1.008,0,0,0-1.12-.86.993.993,0,0,0-.87.99v.13a11.128,11.128,0,0,1,.1,1.53,11.9,11.9,0,0,1-.87,4.5,1.134,1.134,0,0,0-.08.369,1,1,0,0,0,.63.931.986.986,0,0,0,.37.08,1,1,0,0,0,.93-.62v-.01l.02-.04a14.034,14.034,0,0,0,1-5.21,14.461,14.461,0,0,0-.11-1.76Z" fill="#646871"/><path d="M4.03,16.819V16.77c-.011-.28-.021-.53-.021-.769A11.741,11.741,0,0,1,4.62,12.22a1.287,1.287,0,0,0,.05-.321,1.023,1.023,0,0,0-.691-.949,1.009,1.009,0,0,0-1.26.64A14.024,14.024,0,0,0,2.009,16c0,.29.01.59.021.889a1.011,1.011,0,0,0,1,.941H3.1a1,1,0,0,0,.931-1.012" fill="#646871"/><path d="M10.99,4.47a1.039,1.039,0,0,0-.11-.46,1.023,1.023,0,0,0-1.35-.42A13.755,13.755,0,0,0,5.389,6.88l-.04.04c-.009.01-.009.01-.009.02a.988.988,0,0,0,.12,1.39.966.966,0,0,0,.649.24.982.982,0,0,0,.75-.34s.011,0,.011-.01a12.007,12.007,0,0,1,3.59-2.86.981.981,0,0,0,.53-.89" fill="#646871"/></g><g clip-path="url(#a)"><path d="M19.471,16.1A3.471,3.471,0,1,0,16,19.575a3.471,3.471,0,0,0,3.471-3.47" fill="#646871"/><path d="M20.66,3.83a1.074,1.074,0,0,0,.04-.3,1.006,1.006,0,0,0-.721-.949,14.215,14.215,0,0,0-5.319-.511.99.99,0,0,0-.9.99v.1a.985.985,0,0,0,1.089.9h.01a12.232,12.232,0,0,1,4.521.43c.009,0,.019.011.03.011h.01a.93.93,0,0,0,.28.04,1.009,1.009,0,0,0,.96-.71" fill="#646871"/></g></svg>