<svg xmlns="http://www.w3.org/2000/svg" xmlns:xlink="http://www.w3.org/1999/xlink" width="32" height="32" viewBox="0 0 32 32"><defs><clipPath id="a"><rect width="32" height="32" fill="none"/></clipPath></defs><g clip-path="url(#a)"><path d="M7.616,5.35a3.5,3.5,0,1,1-3.5-3.5,3.5,3.5,0,0,1,3.5,3.5" fill="#646871"/><path d="M17.05,26.65a3.5,3.5,0,1,1-3.5-3.5,3.5,3.5,0,0,1,3.5,3.5" fill="#646871"/><path d="M31.384,15.483a3.5,3.5,0,1,1-3.5-3.5,3.5,3.5,0,0,1,3.5,3.5" fill="#646871"/><path d="M13.312,27.6l-9.745-22,1.1-.486,9.123,20.6L27.516,15.01l.737.947Z" fill="#646871"/><path d="M13.2,28.029,3.2,5.453l1.6-.709L13.9,25.271,27.564,14.624,28.639,16ZM3.93,5.733l9.491,21.43L27.867,15.909l-.4-.513L13.678,26.138,4.524,5.47Z" fill="#646871"/></g></svg>