<svg xmlns="http://www.w3.org/2000/svg" xmlns:xlink="http://www.w3.org/1999/xlink" width="32" height="32" viewBox="0 0 32 32"><defs><clipPath id="a"><rect width="32" height="32" fill="none"/></clipPath></defs><g clip-path="url(#a)"><path d="M24.642,25.482a3,3,0,1,0,3-3,3,3,0,0,0-3,3" fill="#646871"/><path d="M7.358,25.482a3,3,0,1,0,3-3,3,3,0,0,0-3,3" fill="#646871"/><path d="M18.642,6.518a3,3,0,1,0,3-3,3,3,0,0,0-3,3" fill="#646871"/><path d="M1.358,6.518a3,3,0,1,0,3-3,3,3,0,0,0-3,3" fill="#646871"/><path d="M28.471,26.082H10.053L3.469,6.048H21.886Zm-17.549-1.2H26.813l-5.8-17.634H5.126Z" fill="#646871"/><path d="M28.851,26.357h-19L3.089,5.773h19Zm-18.6-.55H28.091l-6.4-19.484H3.849Zm16.941-.65H10.723L4.746,6.973H21.217Zm-16.072-.55H26.433L20.819,7.523H5.506Z" fill="#646871"/></g></svg>