<svg xmlns="http://www.w3.org/2000/svg" xmlns:xlink="http://www.w3.org/1999/xlink" width="32" height="32" viewBox="0 0 32 32"><defs><clipPath id="a"><rect width="32" height="32" fill="none"/></clipPath></defs><g clip-path="url(#a)"><path d="M17.872,11.039H19.74a.467.467,0,0,0,.467-.467V6.837a.467.467,0,0,0-.467-.467H17.872a.467.467,0,0,0-.467.467v3.735a.467.467,0,0,0,.467.467" fill="#646871"/><path d="M28.339,8.151l-4.49-4.489a.778.778,0,0,0-.553-.229H5.9A2.468,2.468,0,0,0,3.432,5.9V26.1A2.468,2.468,0,0,0,5.9,28.568H26.1A2.469,2.469,0,0,0,28.568,26.1V8.7a.784.784,0,0,0-.229-.553M9.487,5h11.9V11.51a.9.9,0,0,1-.9.9h-10.1a.9.9,0,0,1-.9-.9Zm9.319,18.888a.627.627,0,0,1-.626.627H10.694a.627.627,0,0,1-.626-.627v-.158a.626.626,0,0,1,.626-.626H18.18a.626.626,0,0,1,.626.626Zm1.651-2.235H10.773a.705.705,0,0,1,0-1.411h9.684a.705.705,0,1,1,0,1.411M27,26.1a.9.9,0,0,1-.9.9H23.029V17.52a.783.783,0,0,0-.782-.783H8.8a.783.783,0,0,0-.782.783V27H5.9a.9.9,0,0,1-.9-.9V5.9A.9.9,0,0,1,5.9,5H7.922v6.514a2.469,2.469,0,0,0,2.466,2.465h10.1a2.469,2.469,0,0,0,2.466-2.466V5h.016L27,9.028Z" fill="#646871"/></g></svg>