<svg xmlns="http://www.w3.org/2000/svg" xmlns:xlink="http://www.w3.org/1999/xlink" width="32" height="32" viewBox="0 0 32 32"><defs><clipPath id="a"><rect width="32" height="32" fill="none"/></clipPath></defs><g clip-path="url(#a)"><path d="M25.216,10.18a6.084,6.084,0,0,0-1.7-3.355A5.985,5.985,0,0,0,18.07,5.182a7.054,7.054,0,0,0-4.6-1.69,7.131,7.131,0,0,0-7.118,6.867,7.118,7.118,0,0,0-1.3,12.33A1,1,0,1,0,6.2,21.06,5.121,5.121,0,0,1,7.66,12a1,1,0,0,0,.7-1.029c-.009-.119-.014-.238-.014-.358a5.128,5.128,0,0,1,5.123-5.123,5.068,5.068,0,0,1,3.612,1.5,1.007,1.007,0,0,0,1,.249,4.005,4.005,0,0,1,4.015,1,4.114,4.114,0,0,1,1.192,2.747,1,1,0,0,0,.76.929,5.179,5.179,0,0,1,3.893,4.974,5.1,5.1,0,0,1-4.428,5.075l-.02,0c-.228,0-.766.008-1.968.013a1,1,0,0,0,0,2h0c.942,0,1.485-.008,1.793-.011.077,0,.179,0,.294-.012h0c.045,0,.092-.008.14-.015v.008a7.1,7.1,0,0,0,6.18-7.06,7.212,7.212,0,0,0-4.726-6.707" fill="#646871"/><path d="M13.166,27.214l5.951-4.284a.237.237,0,0,0,0-.385L13.165,18.3a.237.237,0,0,0-.374.193V21h-.716A6.861,6.861,0,0,0,7.6,22.286a7.407,7.407,0,0,0-2.692,4.953.235.235,0,0,0,.41.187,7.578,7.578,0,0,1,6.951-2.949l.524.086v2.459a.237.237,0,0,0,.375.192" fill="#646871"/></g></svg>