<svg xmlns="http://www.w3.org/2000/svg" xmlns:xlink="http://www.w3.org/1999/xlink" width="32" height="32" viewBox="0 0 32 32"><defs><clipPath id="a"><rect width="32" height="32" fill="none"/></clipPath></defs><g clip-path="url(#a)"><path d="M16.384,11.4h1.731a.432.432,0,0,0,.433-.433V7.506a.433.433,0,0,0-.433-.433H16.384a.433.433,0,0,0-.433.433v3.462a.433.433,0,0,0,.433.433" fill="#646871"/><path d="M25.845,18.274v8.049a.874.874,0,0,1-.874.873H21.993V22.715a3.8,3.8,0,0,1-.927.621l-3.731,1.681a1.744,1.744,0,0,1-1.833-.236H10.037a.607.607,0,0,1-.606-.608V24.02a.606.606,0,0,1,.606-.606H14.82a1.765,1.765,0,0,1,.1-.645l.281-.761h-5.09a.684.684,0,0,1,0-1.368h5.6l.869-2.35a3.8,3.8,0,0,1,.605-1.045H8.2A.759.759,0,0,0,7.44,18V27.2H5.389a.873.873,0,0,1-.873-.873V6.74a.874.874,0,0,1,.873-.873H7.351v6.314a2.392,2.392,0,0,0,2.39,2.389h9.794l2.386-2.686V5.867h.017l2.82,2.821,1.008-1.137L22.787,4.573a.754.754,0,0,0-.535-.222H5.389A2.392,2.392,0,0,0,3,6.74V26.323a2.393,2.393,0,0,0,2.389,2.39H24.971a2.393,2.393,0,0,0,2.39-2.39V16.488ZM8.867,5.867H20.406V12.18a.875.875,0,0,1-.874.874H9.741a.875.875,0,0,1-.874-.874Z" transform="translate(0 -1.063)" fill="#646871"/><path d="M27.876,12.527c-.038-.036-.078-.076-.121-.114-.877-.762-1.758-1.522-2.631-2.29-.119-.106-.175-.087-.27.024q-3.8,4.382-7.609,8.755c-.12.137-.092.2.029.3.866.743,1.729,1.49,2.583,2.247.152.135.215.106.334-.031q2.684-3.1,5.375-6.19,1.1-1.267,2.2-2.535c.041-.048.1-.086.109-.168M27.293,7.98a1.254,1.254,0,0,0-.53.141,4,4,0,0,0-.975.953c-.059.061.007.089.041.118q1.372,1.194,2.744,2.387c.072.063.112.062.173-.012.181-.217.38-.421.551-.646a1.445,1.445,0,0,0-.169-1.937c-.256-.235-.523-.462-.793-.682a1.358,1.358,0,0,0-1.041-.323M16.65,20.162c-.211,1.044-.409,2.007-.6,2.971-.039.193.089.09.15.068.861-.3,1.72-.609,2.581-.908.155-.054.187-.091.045-.211-.513-.436-1.021-.881-1.527-1.327-.206-.18-.4-.369-.648-.593" transform="translate(0.595 -0.898)" fill="#646871"/></g></svg>