<svg xmlns="http://www.w3.org/2000/svg" xmlns:xlink="http://www.w3.org/1999/xlink" width="32" height="32" viewBox="0 0 32 32"><defs><clipPath id="a"><rect width="32" height="32" fill="none"/></clipPath></defs><g clip-path="url(#a)"><path d="M29.411,24.9a.3.3,0,0,0-.148-.148l-3.03-1.54-1.284-.642-2.487-1.263a.313.313,0,0,0-.425.138.287.287,0,0,0-.02.237l1.067,3.178,1.352,4.058a.294.294,0,0,0,.385.2A.3.3,0,0,0,25,28.991a9.364,9.364,0,0,1,1.273-1.58l.661.741,1.53,1.718a.392.392,0,0,0,.553.029l.474-.414a.4.4,0,0,0,.03-.553l-1.53-1.718-.652-.73a9.683,9.683,0,0,1,1.915-1.165.315.315,0,0,0,.158-.415" fill="#646871"/><path d="M16,2a14,14,0,1,0,4.947,27.1,1,1,0,0,0-.709-1.871A11.986,11.986,0,1,1,27.512,19.4a1,1,0,0,0,1.918.566A14.006,14.006,0,0,0,16,2" fill="#646871"/><path d="M16,13.184a1.4,1.4,0,0,0-1.4,1.4v8.377a1.4,1.4,0,0,0,2.792,0V14.58a1.4,1.4,0,0,0-1.4-1.4" fill="#646871"/><path d="M16,8.647a1.57,1.57,0,1,0,1.571,1.571A1.571,1.571,0,0,0,16,8.647" fill="#646871"/></g></svg>