<svg xmlns="http://www.w3.org/2000/svg" xmlns:xlink="http://www.w3.org/1999/xlink" width="32" height="32" viewBox="0 0 32 32"><defs><clipPath id="a"><rect width="32" height="32" fill="none"/></clipPath></defs><g clip-path="url(#a)"><path d="M28.98,10.77A12.707,12.707,0,0,0,4.771,14.591l-.908-.909a1.152,1.152,0,1,0-1.629,1.63l2.92,2.92a1.15,1.15,0,0,0,1.629,0l2.92-2.92a1.152,1.152,0,0,0-1.629-1.629l-.991.991a10.4,10.4,0,1,1,2.961,8.683,1.152,1.152,0,1,0-1.629,1.629A12.708,12.708,0,0,0,28.98,10.77Z" fill="#646871"/><path d="M20.32,21.9a1.149,1.149,0,0,1-.814-.337l-2.955-2.955a1.153,1.153,0,0,1-.338-.815V10.24a1.152,1.152,0,0,1,2.3,0v7.08l2.617,2.617A1.153,1.153,0,0,1,20.32,21.9" fill="#646871"/></g></svg>