<svg xmlns="http://www.w3.org/2000/svg" xmlns:xlink="http://www.w3.org/1999/xlink" width="24" height="24" viewBox="0 0 24 24"><defs><clipPath id="a"><rect width="24" height="24" fill="none"/></clipPath></defs><g clip-path="url(#a)"><path d="M14.226,4.145a.487.487,0,0,0-.833.34V7.972h-.118c-4.344,0-6.339,1.832-6.421,1.914a10.614,10.614,0,0,0-3.8,9.227,1.576,1.576,0,0,1,.035.317s.024.141.059.293c.07.2.2.411.411.165,0,0,0-.012.011-.012a.811.811,0,0,0,.071-.106,1.306,1.306,0,0,0,.094-.176.164.164,0,0,0,.035-.058c3.24-5.365,7.525-5.588,9.192-5.436a.487.487,0,0,1,.435.493v3.123a.487.487,0,0,0,.833.34l6.633-6.644a.5.5,0,0,0,0-.693Z" fill="#646871"/></g></svg>