<svg xmlns="http://www.w3.org/2000/svg" xmlns:xlink="http://www.w3.org/1999/xlink" width="16" height="16" viewBox="0 0 16 16"><defs><clipPath id="a"><rect width="16" height="16" fill="none"/></clipPath></defs><g clip-path="url(#a)"><path d="M8,1.383A4.491,4.491,0,0,0,3.514,5.869c0,3.281,2.822,7.267,3.686,8.409a1,1,0,0,0,1.407.194l.193-.193c.864-1.146,3.686-5.137,3.686-8.41A4.491,4.491,0,0,0,8,1.383M8,12.831C7.04,11.473,5.014,8.316,5.014,5.869a2.986,2.986,0,1,1,5.972,0c0,2.048-1.473,4.837-2.985,6.962" fill="#646871"/><path d="M8,4.005H8A1.91,1.91,0,1,0,8,7.824H8A1.91,1.91,0,0,0,8,4.005" fill="#646871"/></g></svg>