<?xml version="1.0" encoding="utf-8"?>
<!-- Generator: Adobe Illustrator 27.9.0, SVG Export Plug-In . SVG Version: 6.00 Build 0)  -->
<svg version="1.1" id="Layer_1" xmlns="http://www.w3.org/2000/svg" xmlns:xlink="http://www.w3.org/1999/xlink" x="0px" y="0px"
	 viewBox="0 0 32 32" style="enable-background:new 0 0 32 32;" xml:space="preserve">
<style type="text/css">
	.st0{fill:none;}
	.st1{fill:#646871;}
</style>
<g>
	<rect y="0" class="st0" width="32" height="32"/>
	<g>
		<path id="Path_2005" class="st1" d="M18.8,8.2H8.8c-0.6,0-1,0.4-1,1c0,0.6,0.4,1,1,1h10.1c0.6,0,1-0.4,1-1
			C19.8,8.7,19.4,8.2,18.8,8.2"/>
		<path id="Path_2006" class="st1" d="M19.8,13.7c0-0.5-0.4-1-0.9-1H8.8c-0.6,0-1,0.4-1,1s0.4,1,1,1h10.1
			C19.4,14.7,19.8,14.3,19.8,13.7"/>
		<path id="Path_2007" class="st1" d="M8.8,17.3c-0.6,0-1,0.4-1,1s0.4,1,1,1h6.8c0.6,0,1-0.4,1-1s-0.4-1-1-1H8.8z"/>
		<path id="Path_2009" class="st1" d="M20.9,24.9c-0.3,0-0.6-0.3-0.6-0.6c0,0,0,0,0,0v-2.6c0-0.3,0.3-0.6,0.6-0.6
			c0.3,0,0.6,0.3,0.6,0.6c0,0,0,0,0,0v2.6C21.5,24.6,21.2,24.9,20.9,24.9"/>
		<path id="Path_2010" class="st1" d="M20.9,26.8c-0.3,0-0.6-0.3-0.6-0.6s0.3-0.6,0.6-0.6s0.6,0.3,0.6,0.6c0,0,0,0,0,0
			C21.5,26.6,21.2,26.8,20.9,26.8"/>
		<path class="st1" d="M27.7,26.4l-4.9-8.2c-0.6-1-1.9-1.3-3-0.7c-0.3,0.2-0.6,0.4-0.7,0.7l-4.9,8.2c-0.2,0.4-0.3,0.8-0.3,1.2H6.4
			c-0.2,0-0.4-0.2-0.4-0.4V5.3c0-0.2,0.2-0.4,0.4-0.4h15.1c0.2,0,0.4,0.2,0.4,0.4v9.1c0,0.6,0.4,1,1,1c0.6,0,1-0.4,1-1V5.3
			c0-1.3-1.1-2.4-2.4-2.4H6.4C5.1,2.9,4,4,4,5.3v21.9c0,1.4,1.1,2.4,2.4,2.4h19.4c1.2,0,2.1-1,2.1-2.2C28,27.1,27.9,26.7,27.7,26.4z
			 M26,27.6c0,0-0.1,0-0.1,0l-9.9,0c-0.1,0-0.1-0.1-0.1-0.2l0,0l4.6-7.6l0.3-0.6l0,0c0.1-0.1,0.1-0.1,0.2,0c0,0,0,0,0,0l4.9,8.2
			C26,27.5,26,27.6,26,27.6z"/>
	</g>
	<rect y="0" class="st0" width="32" height="32"/>
</g>
</svg>
