<svg xmlns="http://www.w3.org/2000/svg" xmlns:xlink="http://www.w3.org/1999/xlink" width="32" height="32" viewBox="0 0 32 32"><defs><clipPath id="a"><rect width="32" height="32" fill="none"/></clipPath></defs><g clip-path="url(#a)"><path d="M4.155,15.729H7.589A8.293,8.293,0,0,1,9.61,10.888L7.183,8.461a11.621,11.621,0,0,0-3.028,7.268" fill="#646871"/><path d="M6.623,23.65a.639.639,0,0,0,.914.082l1.64-1.39a.649.649,0,0,0,.082-.894A8.379,8.379,0,0,1,7.583,17H4.154a11.809,11.809,0,0,0,2.469,6.65" fill="#646871"/><path d="M17.966,24.921a.906.906,0,1,0,0-1.812H13.914a.906.906,0,0,0,0,1.812Z" fill="#646871"/><path d="M9.637,26.559a.906.906,0,0,0,.906.906H21.37a.906.906,0,0,0,0-1.812H10.543a.906.906,0,0,0-.906.906" fill="#646871"/></g><g clip-path="url(#a)"><path d="M10.507,9.989a8.261,8.261,0,0,1,4.842-2.023V4.535A11.783,11.783,0,0,0,8.085,7.567Z" fill="#646871"/><path d="M23.756,13.146a8.345,8.345,0,0,1-1.068,8.33.64.64,0,0,0,.111.87l1.633,1.374a.647.647,0,0,0,.924-.084,11.847,11.847,0,0,0,.775-13.4c-.573.7-1.424,1.748-2.375,2.913" fill="#646871"/><path d="M14.788,19.308a1.584,1.584,0,0,0,2.241,0c.4-.4,8.346-10.16,8.346-10.16A11.918,11.918,0,0,0,16.62,4.536V7.97a8.385,8.385,0,0,1,6,3.212s-7.566,5.616-7.835,5.885a1.584,1.584,0,0,0,0,2.241" fill="#646871"/></g></svg>