<svg xmlns="http://www.w3.org/2000/svg" xmlns:xlink="http://www.w3.org/1999/xlink" width="32" height="32" viewBox="0 0 32 32"><defs><clipPath id="a"><rect width="32" height="32" fill="none"/></clipPath></defs><g clip-path="url(#a)"><path d="M16,2A14,14,0,1,0,30,16,14.015,14.015,0,0,0,16,2m0,26A12,12,0,1,1,28,16,12.013,12.013,0,0,1,16,28" fill="#646871"/><path d="M16,12.684a1.4,1.4,0,0,0-1.4,1.4v8.377a1.4,1.4,0,0,0,2.792,0V14.08a1.4,1.4,0,0,0-1.4-1.4" fill="#646871"/><path d="M16,8.147a1.57,1.57,0,1,0,1.571,1.571A1.571,1.571,0,0,0,16,8.147" fill="#646871"/></g></svg>