<?xml version="1.0" encoding="utf-8"?>
<!-- Generator: Adobe Illustrator 27.9.0, SVG Export Plug-In . SVG Version: 6.00 Build 0)  -->
<svg version="1.1" id="Layer_1" xmlns="http://www.w3.org/2000/svg" xmlns:xlink="http://www.w3.org/1999/xlink" x="0px" y="0px"
	 viewBox="0 0 32 32" style="enable-background:new 0 0 32 32;" xml:space="preserve">
<style type="text/css">
	.st0{fill:none;}
	.st1{fill:#646871;}
</style>
<rect y="0" class="st0" width="32" height="32"/>
<g>
	<path class="st1" d="M18.3,28.4c0.7,0.4,1.5,0.7,2.2,0.8c0.5,0.1,1.1,0.2,1.6,0.2c3.1,0,5.7-1.7,7.8-5c0.3-0.5,0.3-1.1,0-1.6
		c-0.1-0.2-0.2-0.3-0.3-0.5c-0.4-0.6-0.9-1.2-1.4-1.8c-1-1.1-2.3-2-3.8-2.4c-0.7-0.2-1.4-0.3-2.1-0.3h-0.1c-2.8,0-5.2,1.4-7.1,4.1
		c-0.2,0.3-0.4,0.6-0.6,0.9c-0.2,0.3-0.3,0.7-0.2,1.1c0,0.2,0.1,0.4,0.2,0.6C15.3,26,16.7,27.4,18.3,28.4 M17.5,21.6
		c0.9-0.9,2-1.6,3.3-1.9c0.5-0.1,0.9-0.2,1.4-0.2c0.5,0,1,0.1,1.5,0.2c1.5,0.4,2.9,1.3,3.8,2.6c0.3,0.4,0.6,0.8,0.9,1.2
		c-0.6,1-1.4,1.9-2.4,2.7c-1.1,0.9-2.4,1.3-3.8,1.3c-0.5,0-1-0.1-1.4-0.2c-0.8-0.2-1.6-0.6-2.3-1.1c-0.8-0.6-1.6-1.4-2.1-2.2
		c-0.1-0.2-0.2-0.3-0.4-0.5C16.4,22.8,16.9,22.1,17.5,21.6"/>
	<path class="st1" d="M20.8,26.2c1.2,0.6,2.7,0.3,3.6-0.7c0.5-0.5,0.7-1.2,0.7-2v-0.1c0-1.3-0.9-2.4-2.1-2.8h0
		c-0.3-0.1-0.6-0.1-0.9-0.1c-1.7,0-3,1.3-3,3c0,0.3,0.1,0.7,0.2,1C19.6,25.2,20.1,25.9,20.8,26.2 M20.9,23.5c0-0.7,0.6-1.3,1.3-1.3
		c0,0,0,0,0,0c0.2,0,0.3,0,0.4,0.1c0.5,0.2,0.8,0.6,0.8,1.2c0,0.7-0.5,1.3-1.3,1.3C21.5,24.8,20.9,24.2,20.9,23.5L20.9,23.5
		L20.9,23.5z"/>
</g>
<rect y="0" class="st0" width="32" height="32"/>
<path class="st1" d="M22.5,14.6C21.8,11.2,18.4,9,15,9.7c-3.4,0.7-5.6,4.1-4.9,7.5c0.4,1.8,1.5,3.3,3.1,4.2c0.1,0.1,0.3,0.1,0.4,0.1
	c0.3,0,0.6-0.2,0.8-0.5c0.2-0.4,0.1-1-0.3-1.2c-1-0.6-1.8-1.6-2.1-2.7c-0.3-1.2-0.2-2.4,0.4-3.4c0.6-1.1,1.7-1.9,3-2.2l0-0.1l0,0
	c0,0,0,0,0,0l0,0.1c2.4-0.5,4.8,1.1,5.3,3.5c0,0.2,0.1,0.4,0.1,0.6c0,0.5,0.4,0.9,0.9,0.9c0,0,0,0,0.1,0c0.5,0,0.9-0.5,0.9-1
	C22.6,15.2,22.5,14.9,22.5,14.6z"/>
<path class="st1" d="M14,29.9c-1.2,0-2.2-1-2.2-2.2v-1.6l-0.1-0.2l-0.1-0.1c-0.8-0.4-1.4-0.7-2.1-1.2l-0.2,0l-0.1,0l-1.7,0.9
	c-0.2,0.1-0.5,0.2-0.8,0.2l0,0c-0.8,0-1.5-0.4-1.9-1.1l-1.9-3.3c-0.6-1-0.2-2.4,0.8-2.9l1.3-0.8c0.1-0.1,0.2-0.2,0.2-0.3
	c0-0.4-0.1-0.8-0.1-1.2c0-0.4,0-0.7,0.1-1.1l-0.1-0.2l-0.1-0.1l-1.4-0.8c-1-0.6-1.4-1.9-0.8-2.9L5,7.4c0.4-0.7,1.1-1.1,1.9-1.1
	c0.4,0,0.7,0.1,1.1,0.3l1.4,0.8c0.1,0,0.1,0,0.1,0c0,0,0.1,0,0.1,0c0.7-0.5,1.5-0.9,2.2-1.3l0.1,0V4.3c0-1.2,1-2.2,2.2-2.2h3.9
	c1.2,0,2.2,1,2.2,2.2v1.6c0,0.1,0,0.1,0,0.2l0,0.1l0.1,0c0.7,0.3,1.5,0.7,2.1,1.2l0.2,0l0.1,0L24,6.6c0.3-0.2,0.7-0.3,1.1-0.3
	c0.8,0,1.5,0.4,1.9,1.1l1.9,3.3c0.6,1,0.2,2.3-0.8,2.9l-1.3,0.7V17c0,0.5-0.4,0.9-0.9,0.9s-0.9-0.4-0.9-0.9v-3c0-0.2,0-0.3,0.1-0.5
	c0.1-0.1,0.2-0.2,0.3-0.3c0.1-0.1,0.2-0.2,0.4-0.3l1.3-0.8c0.2-0.1,0.3-0.4,0.2-0.6l-1.9-3.3c-0.1-0.1-0.2-0.2-0.4-0.2
	c-0.1,0-0.2,0-0.2,0.1l-1.3,0.8c-0.4,0.2-0.8,0.3-1.2,0.4L22,9.3l-0.3-0.2c-0.8-0.6-1.6-1.1-2.6-1.5l-0.4-0.1l-0.1-0.4
	c-0.2-0.4-0.2-0.8-0.2-1.2V4.3c0-0.2-0.2-0.4-0.4-0.4H14c-0.2,0-0.4,0.2-0.4,0.4V6c0,0.4-0.1,0.8-0.2,1.1l-0.1,0.4l-0.4,0.1
	c-1,0.4-1.8,0.9-2.6,1.5L10,9.4L9.6,9.3C9.2,9.2,8.8,9.1,8.5,8.9L7.1,8.1C7,8.1,6.9,8.1,6.9,8.1c-0.2,0-0.3,0.1-0.4,0.2l-1.9,3.3
	c-0.1,0.2-0.1,0.5,0.2,0.6L6,13c0.4,0.2,0.7,0.5,1,0.9l0.2,0.3l-0.1,0.4C7.1,15,7,15.5,7,16c0,0.5,0,1,0.1,1.5l0.1,0.4L7,18.2
	c-0.3,0.3-0.6,0.6-1,0.9l-1.3,0.7c-0.2,0.1-0.3,0.4-0.2,0.6l1.9,3.4c0.1,0.1,0.2,0.2,0.4,0.2l0.1,0l0.3-0.2l1.1-0.6
	c0.4-0.2,0.8-0.3,1.2-0.4l0.4-0.1l0.3,0.2c0.8,0.6,1.6,1.1,2.6,1.5l0.4,0.1l0.1,0.4c0.2,0.4,0.3,0.8,0.3,1.2v1.6
	c0,0.2,0.2,0.4,0.4,0.4h2c0.5,0,0.9,0.4,0.9,0.9s-0.4,0.9-0.9,0.9H14z"/>
</svg>
