<svg xmlns="http://www.w3.org/2000/svg" xmlns:xlink="http://www.w3.org/1999/xlink" width="32" height="32" viewBox="0 0 32 32"><defs><clipPath id="a"><rect width="32" height="32" fill="none"/></clipPath></defs><g clip-path="url(#a)"><path d="M5.51,27.152a3.47,3.47,0,0,0,.977.14H22.665a3.509,3.509,0,0,0,3.35-2.51l2.843-9.714a3.489,3.489,0,0,0-2.368-4.329c-.12-.034-.242-.056-.364-.078l-.014-1.439A2.737,2.737,0,0,0,23.389,6.74H13.411l-.1-.239a2.958,2.958,0,0,0-2.721-1.793h-4.1A3.492,3.492,0,0,0,3,8.2V23.683h.015a3.488,3.488,0,0,0,2.5,3.469m20-14.553a1.5,1.5,0,0,1,.419.06,1.488,1.488,0,0,1,1.009,1.848L24.095,24.22a1.5,1.5,0,0,1-1.43,1.072H6.487a1.488,1.488,0,0,1-1.426-1.907l2.844-9.716A1.5,1.5,0,0,1,9.332,12.6ZM5,8.2A1.49,1.49,0,0,1,6.488,6.708h4.1a.958.958,0,0,1,.882.58l.621,1.452H23.383a.736.736,0,0,1,.734.585l.011,1.274H9.332a3.508,3.508,0,0,0-3.347,2.509L5,16.473Z" fill="#646871"/></g></svg>