<svg xmlns="http://www.w3.org/2000/svg" xmlns:xlink="http://www.w3.org/1999/xlink" width="32" height="32" viewBox="0 0 32 32"><defs><clipPath id="a"><rect width="32" height="32" fill="none"/></clipPath></defs><g clip-path="url(#a)"><path d="M7,24.959h7.976v2.074h-3.59a1,1,0,0,0,0,2h9.18a1,1,0,0,0,0-2h-3.59V24.959h8.007A4.063,4.063,0,0,0,29.043,20.9V10.751a3.981,3.981,0,0,0-2.894-3.8A3.028,3.028,0,0,0,22.8,3,2.974,2.974,0,0,0,20.85,4.17L18.8,6.648c-.017,0-.032-.01-.049-.01H7A4.065,4.065,0,0,0,2.942,10.7V20.9A4.065,4.065,0,0,0,7,24.959M22.43,5.395a1.04,1.04,0,0,1,1.868.45,1.016,1.016,0,0,1-.146.722l-5.476,6.6a4.306,4.306,0,0,0-.425-.563,4.555,4.555,0,0,0-1.094-.834ZM17.413,15.858A3.04,3.04,0,0,1,16.15,18a5.563,5.563,0,0,1-3.357.83,5.48,5.48,0,0,1-2.055-.436,6.271,6.271,0,0,0,1.48-2.644,4.354,4.354,0,0,1,.95-1.813,2.62,2.62,0,0,1,1.841-.757,2.459,2.459,0,0,1,1.785.795,2.368,2.368,0,0,1,.619,1.885M4.942,10.7A2.063,2.063,0,0,1,7,8.638h10.15l-2.1,2.542-.025,0a4.543,4.543,0,0,0-3.236,1.31,6.09,6.09,0,0,0-1.456,2.6c-.384,1.1-.66,1.889-1.775,2.38a1.107,1.107,0,0,0-.665.91l-.017.67.489.332a8.252,8.252,0,0,0,4.43,1.447,7.449,7.449,0,0,0,4.516-1.2A5,5,0,0,0,19.4,16.056a4.574,4.574,0,0,0,0-.652c.015-.015.036-.021.05-.038l5.458-6.582.209,0a1.973,1.973,0,0,1,1.925,1.963V20.759a.94.94,0,0,0-.029.14,2.063,2.063,0,0,1-2.06,2.06H16.007c-.01,0-.019-.006-.029-.006s-.019.005-.029.006H7a2.062,2.062,0,0,1-2.06-2.06Z" fill="#646871"/></g></svg>