<svg id="Shadow" xmlns="http://www.w3.org/2000/svg" xmlns:xlink="http://www.w3.org/1999/xlink" width="32" height="32" viewBox="0 0 32 32">
  <defs>
    <clipPath id="clip-path">
      <rect id="Rectangle_1142" data-name="Rectangle 1142" width="32" height="32" fill="none"/>
    </clipPath>
  </defs>
  <g id="Group_2130" data-name="Group 2130" clip-path="url(#clip-path)">
    <path id="Path_1273" data-name="Path 1273" d="M30.885,24.373h0L21.517,22.43V17.4A2.174,2.174,0,0,0,23.1,13.741L14.057,4.1a2.894,2.894,0,0,0-4.083,0L.939,13.741A2.174,2.174,0,0,0,2.521,17.4v9.256a2.088,2.088,0,0,0,2.084,2.083h5.25a.75.75,0,0,0,.75-.75V22.426a.465.465,0,0,1,.461-.463h1.9a.465.465,0,0,1,.462.463v5.566a.75.75,0,0,0,.75.75h5.25v-.011h.006v.011c.039,0,.076-.009.114-.011h9.424c.736,0,1.333-.356,1.333-1.046V26.05c1.247,0,1.433-1.416.581-1.677m-19.819-3.91A1.968,1.968,0,0,0,9.1,22.426v4.815h-4.5a.585.585,0,0,1-.584-.583v-10a.751.751,0,0,0-.75-.75H2.523a.673.673,0,0,1-.492-1.133l9.044-9.647a1.339,1.339,0,0,1,1.891.01l9.041,9.635a.673.673,0,0,1-.491,1.132h-.75a.751.751,0,0,0-.75.75V26.659a.585.585,0,0,1-.583.583h-4.5l0-4.817a1.968,1.968,0,0,0-1.962-1.962Zm8.361,8.12v-.091h.006v.089Z" fill="#646871"/>
  </g>
</svg>
