<svg width="32" height="32" viewBox="0 0 32 32" fill="none" xmlns="http://www.w3.org/2000/svg">
<g clip-path="url(#clip0_79_2779)">
<path d="M5.80994 19.5398C7.67114 19.5398 9.17994 18.031 9.17994 16.1698C9.17994 14.3086 7.67114 12.7998 5.80994 12.7998C3.94874 12.7998 2.43994 14.3086 2.43994 16.1698C2.43994 18.031 3.94874 19.5398 5.80994 19.5398Z" stroke="#646871" stroke-width="2.4" stroke-miterlimit="10"/>
<path d="M26.1898 9.38014C28.051 9.38014 29.5598 7.87134 29.5598 6.01014C29.5598 4.14894 28.051 2.64014 26.1898 2.64014C24.3286 2.64014 22.8198 4.14894 22.8198 6.01014C22.8198 7.87134 24.3286 9.38014 26.1898 9.38014Z" stroke="#646871" stroke-width="2.4" stroke-miterlimit="10"/>
<path d="M26.1898 29.3601C28.051 29.3601 29.5598 27.8513 29.5598 25.9901C29.5598 24.1289 28.051 22.6201 26.1898 22.6201C24.3286 22.6201 22.8198 24.1289 22.8198 25.9901C22.8198 27.8513 24.3286 29.3601 26.1898 29.3601Z" stroke="#646871" stroke-width="2.4" stroke-miterlimit="10"/>
<path d="M9.18018 17.3501L23.0902 24.8301" stroke="#646871" stroke-width="2.4" stroke-miterlimit="10"/>
<path d="M23.5502 7.50977L9.18018 15.2198" stroke="#646871" stroke-width="2.4" stroke-miterlimit="10"/>
</g>
<defs>
<clipPath id="clip0_79_2779">
<rect width="32" height="32" fill="white"/>
</clipPath>
</defs>
</svg>
