<svg width="32" height="32" viewBox="0 0 32 32" fill="none" xmlns="http://www.w3.org/2000/svg">
<g clip-path="url(#clip0_81_3514)">
<path d="M16.35 28.35H9.63C8.02 28.35 6.71 27.04 6.71 25.43V11.03C6.71 9.42 8.02 8.11 9.63 8.11H24.03C25.64 8.11 26.95 9.42 26.95 11.03V12.31C26.95 12.78 27.33 13.16 27.8 13.16C28.27 13.16 28.65 12.78 28.65 12.31V11.03C28.65 8.53 26.65 6.5 24.17 6.42C24.09 3.94 22.06 1.94 19.56 1.94H5.17C2.61 1.95 0.55 4.02 0.55 6.57V20.97C0.55 23.47 2.55 25.5 5.03 25.58C5.11 28.06 7.14 30.06 9.64 30.06H16.36C16.83 30.06 17.21 29.68 17.21 29.21C17.21 28.74 16.83 28.36 16.36 28.36L16.35 28.35ZM5.01 11.03V23.88C3.47 23.8 2.24 22.53 2.24 20.97V6.57C2.24 4.96 3.55 3.65 5.16 3.65H19.56C21.12 3.65 22.38 4.88 22.47 6.42H9.62C7.07 6.42 5 8.49 5 11.04L5.01 11.03Z" fill="#646871"/>
<path d="M31.26 27.38L28.53 24.79C29.28 23.68 29.73 22.35 29.73 20.91C29.73 17.1 26.64 14.01 22.83 14.01C19.02 14.01 15.93 17.1 15.93 20.91C15.93 24.72 19.02 27.81 22.83 27.81C24.33 27.81 25.71 27.32 26.84 26.51L29.6 29.12C29.85 29.36 30.24 29.35 30.48 29.1L31.28 28.27C31.52 28.02 31.51 27.62 31.26 27.38ZM22.83 26.21C19.91 26.21 17.53 23.84 17.53 20.91C17.53 17.99 19.9 15.61 22.83 15.61C25.75 15.61 28.12 17.98 28.13 20.91C28.13 23.84 25.76 26.21 22.83 26.21Z" fill="#646871"/>
</g>
<defs>
<clipPath id="clip0_81_3514">
<rect width="32" height="32" fill="white"/>
</clipPath>
</defs>
</svg>
