<svg width="32" height="32" viewBox="0 0 32 32" fill="none" xmlns="http://www.w3.org/2000/svg">
<path d="M28.5 23.75H3.5C2.81 23.75 2.25 23.19 2.25 22.5V20.5C2.25 19.81 2.81 19.25 3.5 19.25H28.5C29.19 19.25 29.75 19.81 29.75 20.5V22.5C29.75 23.19 29.19 23.75 28.5 23.75ZM3.75 22.25H28.25V20.75H3.75V22.25Z" fill="#646871"/>
<path d="M28 20.75H4C3.59 20.75 3.25 20.41 3.25 20V4C3.25 3.03 4.03 2.25 5 2.25H27C27.97 2.25 28.75 3.03 28.75 4V20C28.75 20.41 28.41 20.75 28 20.75ZM4.75 19.25H27.25V4C27.25 3.86 27.14 3.75 27 3.75H5C4.86 3.75 4.75 3.86 4.75 4V19.25Z" fill="#646871"/>
<path d="M23.03 29.75C22.09 29.75 21.26 29.15 20.97 28.26L19.29 23.23C19.16 22.84 19.37 22.41 19.76 22.28C19.84 22.25 19.92 22.24 20 22.24H23C23.32 22.24 23.61 22.45 23.71 22.75L25.09 26.88C25.47 28.02 24.85 29.25 23.72 29.63C23.5 29.7 23.27 29.74 23.03 29.74V29.75ZM21.04 23.75L22.39 27.79C22.54 28.15 22.94 28.32 23.3 28.17C23.41 28.13 23.5 28.06 23.57 27.97C23.7 27.8 23.73 27.57 23.66 27.36L22.46 23.75H21.04Z" fill="#646871"/>
<path d="M8.42 29.75C7.22 29.75 6.25 28.78 6.25 27.58C6.25 27.35 6.29 27.11 6.36 26.89L7.74 22.76C7.84 22.45 8.13 22.25 8.45 22.25H11.45C11.86 22.25 12.2 22.59 12.2 23C12.2 23.08 12.19 23.16 12.16 23.24L10.48 28.27C10.19 29.16 9.35 29.76 8.42 29.76V29.75ZM8.99 23.75L7.79 27.36C7.72 27.57 7.75 27.79 7.88 27.97C8.13 28.27 8.57 28.31 8.86 28.06C8.95 27.99 9.02 27.89 9.06 27.79L10.41 23.75H8.99Z" fill="#646871"/>
</svg>
