<svg width="33" height="32" viewBox="0 0 33 32" fill="none" xmlns="http://www.w3.org/2000/svg">
<g clip-path="url(#clip0_80_3499)">
<path fill-rule="evenodd" clip-rule="evenodd" d="M30.89 12.06C29.08 4.33 21.65 -0.980001 13.45 0.149999C6.11 1.16 0.419997 7.39 0.0199972 14.79C-0.470003 23.81 6.73 31.3 15.65 31.3C16.16 31.3 16.58 30.88 16.58 30.37V30.35C16.58 29.84 16.16 29.42 15.65 29.42C14.58 29.42 13.51 29.3 12.47 29.05L12.08 28.96L12.18 28.57C12.68 26.48 12.92 24.83 12.91 23.53C12.89 22.07 12.55 20.96 11.85 20.14C11.16 19.33 10.22 18.89 9.53 18.58L9.27 18.46C8.54 18.13 7.85 17.81 7.16 17.31C6.12 16.54 5.24 15.2 4.63 13.42C4.1 11.88 3.87 10.29 3.82 9.33C3.82 9.2 3.78 9.07 3.74 8.87L3.71 8.75L3.77 8.65C4.81 6.88 6.24 5.36 7.95 4.22L8.53 3.83L8.59 4.5C8.73 5.91 9.04 7.91 9.77 9.45C10.33 10.62 11.05 11.39 11.94 11.73C12.28 11.86 12.64 11.93 13 11.93C13.76 11.93 14.57 11.65 15.42 11.09C16.65 10.28 17.61 9.66 18.3 9.27C18.88 8.94 19.25 8.79 19.6 8.74C19.7 8.74 19.82 8.76 20.13 8.85L20.32 8.91C20.65 9.02 21.16 9.18 21.82 9.32C22.24 9.41 22.67 9.45 23.11 9.45C24.82 9.45 26.21 8.78 26.97 8.32L27.28 8.25L27.44 8.51C28.24 9.83 28.81 11.27 29.13 12.77C29.13 12.81 29.17 12.96 29.2 13.14C29.3 13.65 29.78 13.98 30.29 13.89C30.8 13.8 31.14 13.3 31.04 12.79C30.98 12.46 30.92 12.15 30.89 12.05V12.06ZM6.05 18.83C6.91 19.46 7.77 19.85 8.54 20.2L8.74 20.29C9.56 20.66 10.06 20.94 10.41 21.36C10.67 21.66 11.01 22.22 11.02 23.56C11.03 24.65 10.83 26.06 10.4 27.88L10.29 28.36L9.84 28.15C4.99 25.9 1.85 20.99 1.85 15.64C1.85 15.04 1.89 14.43 1.97 13.83L2 13.59L2.67 13.53L2.84 14.03C3.59 16.2 4.66 17.81 6.03 18.82L6.05 18.83ZM25.66 6.92C25.09 7.22 24.18 7.57 23.11 7.57C22.8 7.57 22.5 7.54 22.21 7.48C21.66 7.37 21.29 7.25 20.93 7.13L20.71 7.06C20.4 6.96 20.04 6.86 19.62 6.86C19.49 6.86 19.36 6.86 19.22 6.89C18.59 6.99 17.94 7.32 17.39 7.63C16.65 8.05 15.66 8.69 14.4 9.52C13.87 9.87 13.4 10.05 13.02 10.05C12.88 10.05 12.75 10.03 12.63 9.98C12.34 9.87 11.91 9.55 11.48 8.65C10.66 6.91 10.44 4.26 10.39 3.13L10.45 2.89L10.65 2.81C12.25 2.19 13.93 1.87 15.66 1.87C19.49 1.87 23.17 3.48 25.78 6.29L26.14 6.68L25.67 6.92H25.66Z" fill="#646871"/>
<path d="M32.31 28.17L29.24 25.27C30.09 24.03 30.58 22.53 30.58 20.92C30.58 16.65 27.12 13.18 22.84 13.18C18.57 13.18 15.1 16.64 15.1 20.92C15.1 25.19 18.56 28.66 22.84 28.66C24.52 28.66 26.07 28.11 27.34 27.2L30.43 30.13C30.71 30.4 31.15 30.39 31.42 30.11L32.32 29.18C32.59 28.9 32.58 28.45 32.29 28.18L32.31 28.17ZM22.85 26.86C19.57 26.86 16.91 24.2 16.91 20.92C16.91 17.64 19.57 14.98 22.85 14.98C26.13 14.98 28.79 17.64 28.79 20.92C28.79 24.2 26.13 26.86 22.85 26.86Z" fill="#646871"/>
</g>
<defs>
<clipPath id="clip0_80_3499">
<rect width="32.53" height="31.3" fill="white"/>
</clipPath>
</defs>
</svg>
