<svg width="32" height="32" viewBox="0 0 32 32" fill="none" xmlns="http://www.w3.org/2000/svg">
<g clip-path="url(#clip0_81_3521)">
<path fill-rule="evenodd" clip-rule="evenodd" d="M8.2 4.45L8.4 3.18C8.48 2.67 8.14 2.2 7.63 2.12C7.12 2.04 6.64 2.39 6.57 2.89L5.99 6.56C5.91 7.07 6.25 7.54 6.76 7.62L10.43 8.2C10.94 8.28 11.42 7.93 11.49 7.43C11.57 6.92 11.23 6.45 10.72 6.37L9.07 6.11C11.03 4.73 13.42 3.92 16 3.92C22.67 3.92 28.08 9.33 28.08 16C28.08 22.67 22.67 28.08 16 28.08C9.33 28.08 3.92 22.67 3.92 16C3.92 15.49 3.5 15.07 2.99 15.07C2.48 15.07 2.06 15.49 2.06 16C2.06 23.7 8.31 29.94 16 29.94C23.69 29.94 29.94 23.69 29.94 16C29.94 8.31 23.7 2.06 16 2.06C13.11 2.06 10.42 2.94 8.2 4.45ZM15.07 6.71V16.01C15.07 16.26 15.17 16.49 15.34 16.67L19.99 21.32C20.35 21.68 20.94 21.68 21.3 21.32C21.67 20.96 21.67 20.37 21.3 20.01L16.93 15.63V6.7C16.93 6.19 16.51 5.77 16 5.77C15.49 5.77 15.07 6.19 15.07 6.7V6.71Z" fill="#646871"/>
</g>
<defs>
<clipPath id="clip0_81_3521">
<rect width="32" height="32" fill="white"/>
</clipPath>
</defs>
</svg>
