<svg width="26" height="26" viewBox="0 0 26 26" fill="none" xmlns="http://www.w3.org/2000/svg">
<g clip-path="url(#clip0_74_7542)">
<path d="M13.26 3.6816C7.7688 3.6816 3.328 8.1224 3.328 13.6032C3.328 19.084 7.7792 23.5456 13.26 23.5456C18.7408 23.5456 23.192 19.0944 23.192 13.6032C23.192 8.1224 18.7512 3.6712 13.26 3.6712V3.6816ZM13.9672 19.136C13.7384 19.344 13.468 19.448 13.1664 19.448C12.8648 19.448 12.584 19.344 12.3448 19.1464C12.116 18.9488 11.9912 18.6576 11.9912 18.2936C11.9912 17.9712 12.1056 17.7008 12.3344 17.4824C12.5632 17.264 12.8336 17.1496 13.1664 17.1496C13.4992 17.1496 13.7592 17.264 13.988 17.4824C14.2064 17.7008 14.3208 17.9712 14.3208 18.2936C14.3208 18.6576 14.2064 18.9384 13.9776 19.136H13.9672ZM16.8376 12.0016C16.6608 12.3344 16.4528 12.6152 16.2032 12.8544C15.964 13.0936 15.5168 13.4992 14.8928 14.0608C14.716 14.2168 14.5808 14.3624 14.4768 14.4768C14.3728 14.6016 14.2896 14.7056 14.2376 14.8096C14.1856 14.9136 14.144 15.0072 14.1232 15.1112C14.092 15.2152 14.0504 15.392 13.9984 15.6416C13.9048 16.172 13.5928 16.4424 13.0832 16.4424C12.8128 16.4424 12.5944 16.3592 12.4072 16.1824C12.22 16.0056 12.1368 15.7456 12.1368 15.4024C12.1368 14.976 12.1992 14.6016 12.3344 14.2792C12.4696 13.9672 12.6464 13.6864 12.8648 13.4472C13.0832 13.208 13.3848 12.9272 13.7592 12.5944C14.092 12.3032 14.3208 12.0848 14.4664 11.9392C14.612 11.7936 14.7368 11.6272 14.8408 11.4504C14.9448 11.2736 14.9864 11.076 14.9864 10.868C14.9864 10.452 14.8304 10.1088 14.5288 9.828C14.2272 9.5472 13.832 9.4016 13.3432 9.4016C12.7816 9.4016 12.3656 9.5472 12.0952 9.828C11.8248 10.1088 11.6064 10.5352 11.4192 11.0864C11.2424 11.6688 10.9096 11.96 10.4208 11.96C10.1296 11.96 9.8904 11.856 9.6928 11.6584C9.4952 11.4608 9.4016 11.232 9.4016 11.0032C9.4016 10.5144 9.5576 10.0256 9.8696 9.516C10.1816 9.0168 10.6392 8.6008 11.2424 8.268C11.8456 7.9352 12.5424 7.7792 13.3432 7.7792C14.092 7.7792 14.7472 7.9144 15.3192 8.1952C15.8912 8.4656 16.328 8.84 16.64 9.3184C16.952 9.7864 17.108 10.3064 17.108 10.8576C17.108 11.2944 17.0248 11.6792 16.848 12.0016H16.8376Z" fill="#646871"/>
</g>
<defs>
<clipPath id="clip0_74_7542">
<rect width="26" height="26" fill="white"/>
</clipPath>
</defs>
</svg>
