<svg width="26" height="26" viewBox="0 0 26 26" fill="none" xmlns="http://www.w3.org/2000/svg">
<path d="M23.8306 11.57L22.2868 9.7825C21.9943 9.44125 21.7506 8.8075 21.7506 8.3525V6.42687C21.7506 5.22437 20.7674 4.24125 19.5649 4.24125H17.6393C17.2006 4.24125 16.5506 4.00562 16.2093 3.705L14.4218 2.16125C13.6418 1.495 12.3581 1.495 11.5618 2.16125L9.78245 3.71312C9.4412 3.9975 8.79932 4.23312 8.35245 4.23312H6.39432C5.19182 4.23312 4.2087 5.21625 4.2087 6.41875V8.36062C4.2087 8.79937 3.97307 9.44125 3.6887 9.77437L2.1612 11.5781C1.50307 12.3581 1.50307 13.6256 2.1612 14.4137L3.6887 16.2175C3.97307 16.5587 4.2087 17.1925 4.2087 17.6312V19.5731C4.2087 20.7756 5.19182 21.7587 6.39432 21.7587H8.35245C8.7912 21.7587 9.4412 21.9944 9.78245 22.295L11.5699 23.8387C12.3499 24.505 13.6337 24.505 14.4299 23.8387L16.2174 22.295C16.5587 22.0025 17.1924 21.7587 17.6474 21.7587H19.5731C20.7756 21.7587 21.7587 20.7756 21.7587 19.5731V17.6475C21.7587 17.2087 21.9943 16.5587 22.2949 16.2175L23.8387 14.43C24.4968 13.65 24.4968 12.3581 23.8306 11.57ZM17.7124 10.855L12.2362 16.3312C12.0737 16.4937 11.8624 16.5831 11.6349 16.5831C11.4074 16.5831 11.1962 16.4937 11.0337 16.3312L8.28745 13.585C7.96245 13.26 7.96245 12.7156 8.28745 12.3825C8.61245 12.0494 9.15682 12.0575 9.48995 12.3825L11.6349 14.5275L16.5099 9.6525C16.8349 9.3275 17.3793 9.3275 17.7124 9.6525C18.0456 9.9775 18.0374 10.5219 17.7124 10.855Z" fill="#646871"/>
</svg>
