<svg width="32" height="32" viewBox="0 0 32 32" fill="none" xmlns="http://www.w3.org/2000/svg">
<mask id="mask0_74_7561" style="mask-type:luminance" maskUnits="userSpaceOnUse" x="0" y="0" width="32" height="32">
<path d="M32 0H0V32H32V0Z" fill="white"/>
</mask>
<g mask="url(#mask0_74_7561)">
<path d="M14.629 25.818C12.4553 25.8182 10.3304 25.1738 8.52301 23.9663C6.71558 22.7589 5.30681 21.0425 4.47485 19.0344C3.64289 17.0262 3.42511 14.8165 3.84905 12.6846C4.27299 10.5527 5.31961 8.59433 6.85654 7.05725C8.39348 5.52017 10.3517 4.47337 12.4836 4.04924C14.6155 3.62511 16.8252 3.84269 18.8335 4.67447C20.8417 5.50624 22.5581 6.91486 23.7658 8.72218C24.9734 10.5295 25.618 12.6543 25.618 14.828C25.6154 17.7417 24.4568 20.5354 22.3965 22.5958C20.3363 24.6562 17.5427 25.8151 14.629 25.818ZM14.629 6.39C12.9598 6.3898 11.3281 6.8846 9.94017 7.81181C8.55223 8.73902 7.47043 10.057 6.83157 11.5991C6.19272 13.1411 6.02552 14.838 6.35111 16.4751C6.67669 18.1122 7.48045 19.616 8.66073 20.7963C9.841 21.9765 11.3448 22.7803 12.9819 23.1059C14.619 23.4315 16.3159 23.2643 17.8579 22.6254C19.4 21.9866 20.718 20.9048 21.6452 19.5168C22.5724 18.1289 23.0672 16.4972 23.067 14.828C23.0646 12.5908 22.1749 10.446 20.5929 8.86406C19.011 7.28215 16.8662 6.39238 14.629 6.39Z" fill="#646871"/>
<path d="M25.42 27.907L20.54 23.288C20.4442 23.1973 20.3672 23.0886 20.3136 22.968C20.26 22.8475 20.2307 22.7175 20.2276 22.5856C20.2244 22.4537 20.2474 22.3224 20.2952 22.1995C20.343 22.0765 20.4146 21.9642 20.506 21.869L21.78 20.545C21.9629 20.3549 22.2135 20.2448 22.4772 20.2386C22.7409 20.2324 22.9964 20.3307 23.188 20.512L28.068 25.131C28.1637 25.2218 28.2405 25.3307 28.2939 25.4513C28.3474 25.5719 28.3764 25.7019 28.3794 25.8338C28.3824 25.9657 28.3592 26.0969 28.3113 26.2198C28.2633 26.3427 28.1915 26.455 28.1 26.55L26.826 27.874C26.6431 28.0641 26.3925 28.1742 26.1288 28.1804C25.8651 28.1866 25.6096 28.0883 25.418 27.907" fill="#646871"/>
</g>
</svg>
