<svg id="Stop" xmlns="http://www.w3.org/2000/svg" xmlns:xlink="http://www.w3.org/1999/xlink" width="32" height="32" viewBox="0 0 32 32">
  <defs>
    <clipPath id="clip-path">
      <rect id="Rectangle_1163" data-name="Rectangle 1163" width="32" height="32" fill="none"/>
    </clipPath>
  </defs>
  <g id="Group_2146" data-name="Group 2146" clip-path="url(#clip-path)">
    <path id="Path_1294" data-name="Path 1294" d="M15.99,30.3A14.309,14.309,0,1,1,30.3,15.99,14.325,14.325,0,0,1,15.99,30.3m0-26.618A12.309,12.309,0,1,0,28.3,15.99,12.323,12.323,0,0,0,15.99,3.681" fill="#646871"/>
    <path id="Path_1295" data-name="Path 1295" d="M11.55,11h8.07a.551.551,0,0,1,.55.55v8.07a.551.551,0,0,1-.55.55H11.55a.551.551,0,0,1-.55-.55V11.55a.551.551,0,0,1,.55-.55" transform="translate(0.415 0.415)" fill="#646871"/>
  </g>
</svg>
