<svg id="Light" xmlns="http://www.w3.org/2000/svg" xmlns:xlink="http://www.w3.org/1999/xlink" width="32" height="32" viewBox="0 0 32 32">
  <defs>
    <clipPath id="clip-path">
      <rect id="Rectangle_1141" data-name="Rectangle 1141" width="32" height="32" fill="none"/>
    </clipPath>
  </defs>
  <g id="Group_2128" data-name="Group 2128" clip-path="url(#clip-path)">
    <path id="Path_1264" data-name="Path 1264" d="M21.615,15.9A5.713,5.713,0,1,1,15.9,10.19,5.713,5.713,0,0,1,21.615,15.9" fill="#646871"/>
    <path id="Path_1265" data-name="Path 1265" d="M15.88,7.665a.75.75,0,0,1-.75-.75V1.653a.75.75,0,1,1,1.5,0V6.915a.75.75,0,0,1-.75.75" fill="#646871"/>
    <path id="Path_1266" data-name="Path 1266" d="M15.88,30.79a.75.75,0,0,1-.75-.75V24.778a.75.75,0,1,1,1.5,0V30.04a.75.75,0,0,1-.75.75" fill="#646871"/>
    <path id="Path_1267" data-name="Path 1267" d="M30.04,16.63H24.778a.75.75,0,1,1,0-1.5H30.04a.75.75,0,1,1,0,1.5" fill="#646871"/>
    <path id="Path_1268" data-name="Path 1268" d="M6.915,16.63H1.653a.75.75,0,1,1,0-1.5H6.915a.75.75,0,1,1,0,1.5" fill="#646871"/>
    <path id="Path_1269" data-name="Path 1269" d="M22.642,9.875a.75.75,0,0,1-.53-1.28l3.72-3.721a.75.75,0,0,1,1.061,1.06L23.172,9.655a.744.744,0,0,1-.53.22" fill="#646871"/>
    <path id="Path_1270" data-name="Path 1270" d="M5.4,27.113a.75.75,0,0,1-.53-1.28L8.6,22.112a.75.75,0,1,1,1.06,1.06L5.934,26.893a.744.744,0,0,1-.53.22" fill="#646871"/>
    <path id="Path_1271" data-name="Path 1271" d="M26.363,27.113a.744.744,0,0,1-.53-.22l-3.721-3.721a.75.75,0,1,1,1.061-1.06l3.72,3.721a.75.75,0,0,1-.53,1.28" fill="#646871"/>
    <path id="Path_1272" data-name="Path 1272" d="M9.125,9.875a.744.744,0,0,1-.53-.22L4.874,5.934a.75.75,0,0,1,1.06-1.06L9.655,8.6a.75.75,0,0,1-.53,1.28" fill="#646871"/>
  </g>
</svg>
