<svg id="Swipe" xmlns="http://www.w3.org/2000/svg" xmlns:xlink="http://www.w3.org/1999/xlink" width="32" height="32" viewBox="0 0 32 32">
  <defs>
    <clipPath id="clip-path">
      <rect id="Rectangle_1140" data-name="Rectangle 1140" width="32" height="32" fill="none"/>
    </clipPath>
  </defs>
  <path id="Path_1258" data-name="Path 1258" d="M16,.562v1H28.11V25.636H24.973v1H29.11V.562Z" fill="#646871"/>
  <g id="Group_2126" data-name="Group 2126">
    <g id="Group_2125" data-name="Group 2125" clip-path="url(#clip-path)">
      <path id="Path_1260" data-name="Path 1260" d="M15.741,31.409c-.934,0-3.133-2.842-3.4-3.887a10.024,10.024,0,0,1,.268-4.23c.26-.741.519-.841.621-.447V25.6c0,.33.174.6.5.6a.542.542,0,0,0,.564-.519.338.338,0,0,0,0-.045V14.35c0-.152-.023-.689-.023-.689a.969.969,0,0,1,.967-.966.917.917,0,0,1,.921.689v9.709a.533.533,0,0,0,.456.6.57.57,0,0,0,.143,0,.6.6,0,0,0,.6-.6V18.4a.967.967,0,0,1,1.933,0v4.293a.6.6,0,1,0,1.2,0V18.4a.967.967,0,1,1,1.933-.062v3.22a.6.6,0,0,0,1.2,0V19.128c0-.532.256-.967.786-.967s.792.435.792.967V25.6c0,2.479-1.557,5.746-2.778,5.812s-5.754,0-6.687,0" fill="#646871"/>
      <rect id="Rectangle_1137" data-name="Rectangle 1137" width="1.013" height="1.698" transform="translate(15.488 9.512)" fill="#646871"/>
      <rect id="Rectangle_1138" data-name="Rectangle 1138" width="1.013" height="1.698" transform="translate(15.488 6.294)" fill="#646871"/>
      <rect id="Rectangle_1139" data-name="Rectangle 1139" width="1.013" height="1.698" transform="translate(15.488 3.079)" fill="#646871"/>
      <path id="Path_1261" data-name="Path 1261" d="M10.722,26.636H2.889V.561H16v1H3.889V25.636h6.833Z" fill="#646871"/>
      <path id="Path_1262" data-name="Path 1262" d="M9.368,12.885a.263.263,0,0,1,0,.372l-.265.265a.263.263,0,0,1-.372,0L6.659,11.45a.452.452,0,0,1,0-.637L8.731,8.741a.263.263,0,0,1,.372,0l.265.264a.264.264,0,0,1,0,.373L7.615,11.131Z" fill="#646871"/>
      <path id="Path_1263" data-name="Path 1263" d="M22.816,9.378a.263.263,0,0,1,0-.372l.265-.265a.263.263,0,0,1,.372,0l2.072,2.072a.452.452,0,0,1,0,.637l-2.072,2.071a.261.261,0,0,1-.372,0l-.265-.264a.263.263,0,0,1,0-.372l1.753-1.753Z" fill="#646871"/>
    </g>
  </g>
</svg>
