<svg xmlns="http://www.w3.org/2000/svg" xmlns:xlink="http://www.w3.org/1999/xlink" width="32" height="32" viewBox="0 0 32 32"><defs><clipPath id="a"><rect width="32" height="32" fill="none"/></clipPath></defs><g clip-path="url(#a)"><path d="M21.378,20.086l-.413-.631C18.1,15.1,14.542,9.683,13.487,5.318a3.121,3.121,0,0,1,.2-2.675c.469-.6,1.3-.862,2.7-.862a9.869,9.869,0,0,1,1.78.194A11.869,11.869,0,0,0,13.085.41a4.288,4.288,0,0,0-1.062.127A3.3,3.3,0,0,0,9.781,2.122c-.741,1.351-.623,3.538.345,6.5,1.176,3.581,4.452,8.707,6.617,12.1.773,1.218,1.387,2.176,1.695,2.75.166.3.365.63.575.973.91,1.508,1.938,3.215,1.445,4.647a2.65,2.65,0,0,1-1.7,1.565,7.568,7.568,0,0,1-2.7.436c-.346,0-.7-.014-1.047-.046,2.568.759,5.525.721,7.215-.072a3.645,3.645,0,0,0,2.208-4.4,19.553,19.553,0,0,0-3.063-6.487" fill="#646871" fill-rule="evenodd"/><path d="M17.108,24.187c-.281-.523-.881-1.462-1.646-2.656-2.2-3.454-5.538-8.675-6.773-12.442A17.657,17.657,0,0,1,7.9,5.671,13.556,13.556,0,0,0,16,30.1a4.744,4.744,0,0,0,2.38-.519,1.116,1.116,0,0,0,.647-.979c.093-.812-.646-2.276-1.325-3.4-.215-.358-.418-.7-.594-1.016" fill="#646871" fill-rule="evenodd"/><path d="M16,2.987a1.356,1.356,0,0,0-.969.256c-.311.274-.266.937-.074,1.721.991,4.1,4.469,9.395,7.271,13.659l.418.631a26.416,26.416,0,0,1,3.182,6.559l.012.054A13.556,13.556,0,0,0,16,2.987" fill="#646871" fill-rule="evenodd"/></g></svg>