<svg xmlns="http://www.w3.org/2000/svg" xmlns:xlink="http://www.w3.org/1999/xlink" width="32" height="32" viewBox="0 0 32 32"><defs><clipPath id="a"><rect width="32" height="32" fill="none"/></clipPath></defs><g clip-path="url(#a)"><path d="M9.61,6.756,2.377,12.3a1.561,1.561,0,0,0-.361,2.085l4.938,7.642a1.567,1.567,0,0,0,1.04.69L27.55,26.168a1.56,1.56,0,0,0,1.809-1.27l2.3-13.188a1.56,1.56,0,0,0-1.266-1.8L10.83,6.457a1.559,1.559,0,0,0-1.221.3M7.68,14.3a1.468,1.468,0,1,1-1.194-1.7A1.466,1.466,0,0,1,7.68,14.3M27.761,24.682,8.826,21.342,11.17,8.052,30.1,11.391Z" transform="translate(-0.583 -0.385)" fill="#646871"/><path d="M24.486,14.72c-.022.121-.066.176-.132.163-.092-.017-.14-.087-.149-.214a5.078,5.078,0,0,0-.224-1.3,2.107,2.107,0,0,0-.778-1.04,2.588,2.588,0,0,0-1.008-.331l-.78-.142-1.452,8.058q-.114.635-.119.765a.877.877,0,0,0,.309.674,2.183,2.183,0,0,0,.678.291l.345.109c.147.051.212.12.2.2s-.1.113-.25.086l-5.508-.993c-.146-.026-.209-.087-.191-.184q.02-.119.243-.106l.353.017a3.029,3.029,0,0,0,.639-.007.82.82,0,0,0,.514-.357,3.05,3.05,0,0,0,.265-.954L18.892,11.4l-.762-.137a2.225,2.225,0,0,0-1.624.176,3.166,3.166,0,0,0-1.175,1.634c-.05.134-.117.195-.2.179s-.123-.094-.1-.233l.386-2.142q.125-.7.988-.543l7.74,1.394c.568.1.811.387.727.852Z" transform="translate(-0.045 -0.228)" fill="#646871"/></g></svg>