<svg xmlns="http://www.w3.org/2000/svg" xmlns:xlink="http://www.w3.org/1999/xlink" width="24" height="24" viewBox="0 0 24 24"><defs><clipPath id="a"><rect width="24" height="24" fill="none"/></clipPath></defs><g clip-path="url(#a)"><path d="M12,21.993A9.994,9.994,0,1,1,21.994,12,10,10,0,0,1,12,21.993M12,4.006A7.994,7.994,0,1,0,19.994,12,8,8,0,0,0,12,4.006" fill="#646871"/><path d="M15.392,17.412a.994.994,0,0,1-.626-.221l-4.02-3.236a1,1,0,0,1-.373-.779V7.589a1,1,0,0,1,2,0V12.7l3.647,2.936a1,1,0,0,1-.628,1.779" fill="#646871"/></g></svg>