<svg xmlns="http://www.w3.org/2000/svg" xmlns:xlink="http://www.w3.org/1999/xlink" width="32" height="32" viewBox="0 0 32 32"><defs><clipPath id="a"><rect width="32" height="32" fill="none"/></clipPath></defs><g clip-path="url(#a)"><path d="M28.262,28l-9.62-13.99,9.25-10.75a.467.467,0,0,0,.05-.06c.06-.08.12-.22-.14-.22h-1.64a.622.622,0,0,0-.46.21l-7.89,9.18a.194.194,0,0,1-.3-.02l-6.26-9.11a.611.611,0,0,0-.5-.26H4.622a.6.6,0,0,0-.49.94l9.24,13.46a.12.12,0,0,1,0,.15L3.722,28.74a.468.468,0,0,0-.05.06c-.06.08-.12.22.14.22h1.62a.656.656,0,0,0,.5-.23l8.38-9.75a.148.148,0,0,1,.22.01l6.65,9.69a.663.663,0,0,0,.54.28h6a.65.65,0,0,0,.54-1.02m-5.83-.6-6.86-9.81v-.01l-1.01-1.44L6.542,4.67h3.45l6.47,9.26,1.01,1.44,8.41,12.03Z" fill="#646871"/></g></svg>