<svg id="Viewshed" xmlns="http://www.w3.org/2000/svg" xmlns:xlink="http://www.w3.org/1999/xlink" width="32" height="32" viewBox="0 0 32 32">
  <defs>
    <clipPath id="clip-path">
      <rect id="Rectangle_1136" data-name="Rectangle 1136" width="32" height="32" fill="none"/>
    </clipPath>
  </defs>
  <g id="Group_2123" data-name="Group 2123" clip-path="url(#clip-path)">
    <path id="Path_1255" data-name="Path 1255" d="M24,10.457c-.208-.2-5.16-4.965-11.386-4.965S1.433,10.255,1.225,10.457l-.474.462.474.463c.207.2,5.156,4.964,11.386,4.964S23.789,11.584,24,11.382l.473-.463Zm-11.386,4.6c-4.6,0-8.576-2.968-9.962-4.134a18.506,18.506,0,0,1,7.425-3.846,3.615,3.615,0,1,0,6.163,2.558h0a3.622,3.622,0,0,0-1.049-2.549,18.545,18.545,0,0,1,7.386,3.837c-1.385,1.166-5.362,4.134-9.961,4.134" fill="#646871"/>
    <path id="Path_1257" data-name="Path 1257" d="M27.766,28.88a.608.608,0,0,1-.119-.012L1.281,23.535a.6.6,0,0,1,.042-1.183l29.2-3.779a.6.6,0,0,1,.677.6,16.659,16.659,0,0,1-2.7,9.089l-.227.349a.6.6,0,0,1-.5.273m-22.7-5.8,22.416,4.534,0-.007a15.461,15.461,0,0,0,2.5-7.751Z" fill="#646871"/>
  </g>
</svg>
