<svg xmlns="http://www.w3.org/2000/svg" xmlns:xlink="http://www.w3.org/1999/xlink" width="32" height="32" viewBox="0 0 32 32"><defs><clipPath id="a"><rect width="32" height="32" fill="none"/></clipPath></defs><g clip-path="url(#a)"><path d="M7.691,5.8V28.678a.9.9,0,0,0,.9.9H25.266a.9.9,0,0,0,.9-.9V5.8a.9.9,0,0,0-.9-.9H8.59a.9.9,0,0,0-.9.9m4.831,21.673h-1.9a.9.9,0,0,1-.9-.9V24.663a.9.9,0,0,1,.9-.9h1.9a.9.9,0,0,1,.9.9v1.912a.9.9,0,0,1-.9.9m0-5.154h-1.9a.9.9,0,0,1-.9-.9v-1.9a.9.9,0,0,1,.9-.9h1.9a.9.9,0,0,1,.9.9v1.9a.9.9,0,0,1-.9.9m0-5.142h-1.9a.9.9,0,0,1-.9-.9v-1.9a.9.9,0,0,1,.9-.9h1.9a.9.9,0,0,1,.9.9v1.9a.9.9,0,0,1-.9.9m5.357,10.3h-1.9a.9.9,0,0,1-.9-.9V24.663a.9.9,0,0,1,.9-.9h1.9a.9.9,0,0,1,.9.9v1.912a.9.9,0,0,1-.9.9m0-5.154h-1.9a.9.9,0,0,1-.9-.9v-1.9a.9.9,0,0,1,.9-.9h1.9a.9.9,0,0,1,.9.9v1.9a.9.9,0,0,1-.9.9m0-5.142h-1.9a.9.9,0,0,1-.9-.9v-1.9a.9.9,0,0,1,.9-.9h1.9a.9.9,0,0,1,.9.9v1.9a.9.9,0,0,1-.9.9m5.359,10.3h-1.9a.9.9,0,0,1-.9-.9V24.663a.9.9,0,0,1,.9-.9h1.9a.9.9,0,0,1,.9.9v1.912a.9.9,0,0,1-.9.9m0-5.154h-1.9a.9.9,0,0,1-.9-.9v-1.9a.9.9,0,0,1,.9-.9h1.9a.9.9,0,0,1,.9.9v1.9a.9.9,0,0,1-.9.9m0-5.142h-1.9a.9.9,0,0,1-.9-.9v-1.9a.9.9,0,0,1,.9-.9h1.9a.9.9,0,0,1,.9.9v1.9a.9.9,0,0,1-.9.9m0-5.826H10.621a.9.9,0,0,1-.9-.9V7.9a.9.9,0,0,1,.9-.9H23.237a.9.9,0,0,1,.9.9v2.548a.9.9,0,0,1-.9.9" transform="translate(-0.929 -1.241)" fill="#646871"/></g></svg>