<svg id="Volume" xmlns="http://www.w3.org/2000/svg" xmlns:xlink="http://www.w3.org/1999/xlink" width="32" height="32" viewBox="0 0 32 32">
  <defs>
    <clipPath id="clip-path">
      <rect id="Rectangle_1134" data-name="Rectangle 1134" width="32" height="32" fill="none"/>
    </clipPath>
  </defs>
  <g id="Group_2119" data-name="Group 2119" clip-path="url(#clip-path)">
    <path id="Path_1247" data-name="Path 1247" d="M14.311,9.721l-.864-2.177a.7.7,0,0,0-.654-.443l-9.317.016a.507.507,0,0,0-.507.507v.547a.508.508,0,0,0,.507.508H11.8l3.472,9.365H13.953L10.719,9.721h-6.6L.263,15.747v6.711H.926a4.562,4.562,0,0,1,8.738,0h8.093a4.562,4.562,0,0,1,8.738,0h1.148V18.571a.527.527,0,0,0-.527-.527H22.19a19.114,19.114,0,0,1,1.825-.877A18.763,18.763,0,0,1,30.266,15.6a.48.48,0,0,0,.449-.477V11.4h.607a.5.5,0,0,0,.5-.5v-.68a.5.5,0,0,0-.5-.5ZM2.041,15.644l2.815-4.7H9.814l1.681,4.7Z" fill="#646871"/>
    <path id="Path_1248" data-name="Path 1248" d="M22.127,20.711a3.093,3.093,0,1,0,3.094,3.094,3.093,3.093,0,0,0-3.094-3.094m0,4.6a1.5,1.5,0,1,1,1.5-1.5,1.5,1.5,0,0,1-1.5,1.5" fill="#646871"/>
    <path id="Path_1249" data-name="Path 1249" d="M5.3,20.711a3.093,3.093,0,1,0,3.094,3.094A3.093,3.093,0,0,0,5.3,20.711m0,4.6a1.5,1.5,0,1,1,1.5-1.5,1.5,1.5,0,0,1-1.5,1.5" fill="#646871"/>
  </g>
</svg>
