<svg xmlns="http://www.w3.org/2000/svg" xmlns:xlink="http://www.w3.org/1999/xlink" width="32" height="32" viewBox="0 0 32 32"><defs><clipPath id="a"><rect width="32" height="32" fill="none"/></clipPath></defs><g clip-path="url(#a)"><path d="M25.888,6.1A14.065,14.065,0,0,0,1.895,15.984,13.917,13.917,0,0,0,3.77,22.976l-1.623,5.9a.806.806,0,0,0,.981.993l6.1-1.592a14.091,14.091,0,0,0,6.716,1.7h.006A14.039,14.039,0,0,0,30,16,13.869,13.869,0,0,0,25.888,6.1M15.947,27.619h0A11.717,11.717,0,0,1,10,26l-.426-.252L5.151,26.9l1.18-4.29-.278-.44a11.553,11.553,0,0,1-1.786-6.186A11.691,11.691,0,0,1,24.209,7.771a11.524,11.524,0,0,1,3.418,8.224,11.668,11.668,0,0,1-11.68,11.624m6.407-8.706c-.351-.175-2.077-1.02-2.4-1.137s-.556-.175-.79.175-.907,1.137-1.112,1.37-.41.263-.761.088a9.611,9.611,0,0,1-2.824-1.735,10.57,10.57,0,0,1-1.953-2.42c-.2-.351,0-.521.154-.714a9.854,9.854,0,0,0,.878-1.195.643.643,0,0,0-.029-.612c-.088-.175-.79-1.895-1.083-2.6-.285-.681-.574-.589-.79-.6s-.439-.012-.673-.012a1.291,1.291,0,0,0-.936.437,3.913,3.913,0,0,0-1.229,2.916,6.772,6.772,0,0,0,1.434,3.614,15.615,15.615,0,0,0,6,5.277,20.167,20.167,0,0,0,2,.736,4.831,4.831,0,0,0,2.211.138,3.615,3.615,0,0,0,2.37-1.661,2.9,2.9,0,0,0,.2-1.662c-.088-.146-.322-.233-.673-.408" fill="#646871" fill-rule="evenodd"/></g></svg>