<svg xmlns="http://www.w3.org/2000/svg" xmlns:xlink="http://www.w3.org/1999/xlink" width="24" height="24" viewBox="0 0 24 24"><defs><clipPath id="a"><rect width="24" height="24" fill="none"/></clipPath></defs><g clip-path="url(#a)"><path d="M20.594,13.607H3.406a.4.4,0,0,1-.4-.4V10.793a.4.4,0,0,1,.4-.4H20.594a.4.4,0,0,1,.4.4v2.414a.4.4,0,0,1-.4.4" fill="#646871"/><path d="M10.393,20.594V3.406a.4.4,0,0,1,.4-.4h2.414a.4.4,0,0,1,.4.4V20.594a.4.4,0,0,1-.4.4H10.793a.4.4,0,0,1-.4-.4" fill="#646871"/></g></svg>